<?xml version="1.0" encoding="utf-8"?>
<!-- Generated by IcoMoon.io -->
<!DOCTYPE svg PUBLIC "-//W3C//DTD SVG 1.1//EN" "http://www.w3.org/Graphics/SVG/1.1/DTD/svg11.dtd">
<svg version="1.1" xmlns="http://www.w3.org/2000/svg" xmlns:xlink="http://www.w3.org/1999/xlink" width="128" height="128" viewBox="0 0 128 128">
<g id="icomoon-ignore">
	<line stroke-width="1" x1="" y1="" x2="" y2="" stroke="#449FDB" opacity=""></line>
</g>
	<path d="M9.778 128h108.445c5.4 0 9.778-4.378 9.778-9.778v-84.445c0-5.4-4.378-9.778-9.778-9.778h-46.222v-14.222c0-5.4-4.378-9.778-9.778-9.778h-52.444c-5.4 0-9.778 4.378-9.778 9.778v108.445c0 5.4 4.378 9.778 9.778 9.778zM104 40h8v16h-8v-16zM104 64h8v16h-8v-16zM88 40h8v16h-8v-16zM88 64h8v16h-8v-16zM72 40h8v16h-8v-16zM72 64h8v16h-8v-16zM48 16h8v16h-8v-16zM48 40h8v16h-8v-16zM48 64h8v16h-8v-16zM32 16h8v16h-8v-16zM32 40h8v16h-8v-16zM32 64h8v16h-8v-16zM16 16h8v16h-8v-16zM16 40h8v16h-8v-16zM16 64h8v16h-8v-16z" fill="#000000"></path>
</svg>
