<?xml version="1.0" encoding="utf-8"?>
<!-- Generated by IcoMoon.io -->
<!DOCTYPE svg PUBLIC "-//W3C//DTD SVG 1.1//EN" "http://www.w3.org/Graphics/SVG/1.1/DTD/svg11.dtd">
<svg version="1.1" xmlns="http://www.w3.org/2000/svg" xmlns:xlink="http://www.w3.org/1999/xlink" width="128" height="128" viewBox="0 0 128 128">
<g id="icomoon-ignore">
	<line stroke-width="1" x1="" y1="" x2="" y2="" stroke="#449FDB" opacity=""></line>
</g>
	<path d="M118.222 24h-22.222v-14.222c0-5.4-4.378-9.778-9.778-9.778h-44.444c-5.4 0-9.778 4.378-9.778 9.778v14.222h-22.222c-5.4 0-9.778 4.378-9.778 9.778v76.445c0 5.4 4.378 9.778 9.778 9.778h108.445c5.4 0 9.778-4.378 9.778-9.778v-76.445c0-5.4-4.378-9.778-9.778-9.778zM88 80h-16v16h-16v-16h-16v-16h16v-16h16v16h16v16zM88 24h-48v-16h48v16z" fill="#000000"></path>
</svg>
