<?xml version="1.0" encoding="utf-8"?>
<!-- Generated by IcoMoon.io -->
<!DOCTYPE svg PUBLIC "-//W3C//DTD SVG 1.1//EN" "http://www.w3.org/Graphics/SVG/1.1/DTD/svg11.dtd">
<svg version="1.1" xmlns="http://www.w3.org/2000/svg" xmlns:xlink="http://www.w3.org/1999/xlink" width="128" height="128" viewBox="0 0 128 128">
<g id="icomoon-ignore">
	<line stroke-width="1" x1="" y1="" x2="" y2="" stroke="#449FDB" opacity=""></line>
</g>
	<path d="M104 40c-7.958 0-15.008 3.877-19.374 9.841l-37.667-18.834c0.675-2.217 1.042-4.569 1.042-7.007 0-13.255-10.745-24-24-24s-24 10.745-24 24 10.745 24 24 24c7.958 0 15.008-3.877 19.374-9.841l37.668 18.834c-0.675 2.218-1.042 4.569-1.042 7.007s0.366 4.789 1.042 7.006l-37.667 18.834c-4.366-5.963-11.416-9.84-19.374-9.84-13.255 0-24 10.745-24 24s10.745 24 24 24 24-10.745 24-24c0-2.438-0.366-4.79-1.042-7.007l37.667-18.834c4.366 5.965 11.416 9.841 19.374 9.841 13.255 0 24-10.745 24-24s-10.745-24-24-24z" fill="#000000"></path>
</svg>
