<?xml version="1.0" encoding="utf-8"?>
<!-- Generated by IcoMoon.io -->
<!DOCTYPE svg PUBLIC "-//W3C//DTD SVG 1.1//EN" "http://www.w3.org/Graphics/SVG/1.1/DTD/svg11.dtd">
<svg version="1.1" xmlns="http://www.w3.org/2000/svg" xmlns:xlink="http://www.w3.org/1999/xlink" width="128" height="128" viewBox="0 0 128 128">
<g id="icomoon-ignore">
	<line stroke-width="1" x1="" y1="" x2="" y2="" stroke="#449FDB" opacity=""></line>
</g>
	<path d="M3.027 71.16c-0.635 0-1.133 0.221-1.223 0.511l-1.804 9.234 1.812 8.902c0.096 0.262 0.587 0.457 1.23 0.457 0.622 0 1.203-0.194 1.217-0.457l2.059-8.902-2.061-9.234c-0.014-0.29-0.595-0.511-1.231-0.511z" fill="#000000"></path>
	<path d="M28.573 51.379c-0.967 0-1.777 0.539-1.797 1.203l-1.313 28.379 1.313 13.575c0.020 0.677 0.829 1.175 1.797 1.175 0.926 0 1.769-0.498 1.769-1.175l1.445-13.575-1.445-28.379c0.001-0.664-0.842-1.203-1.769-1.203z" fill="#000000"></path>
	<path d="M41.325 50.965c-1.127 0-2.011 0.636-2.032 1.41l-1.085 28.587 1.085 13.381c0.020 0.773 0.906 1.382 2.032 1.382 1.071 0 2.032-0.581 2.087-1.382l1.21-13.381-1.21-28.587c-0.055-0.774-1.017-1.41-2.087-1.41z" fill="#000000"></path>
	<path d="M54.104 46.582c-1.258 0-2.246 0.719-2.274 1.603l-0.898 32.775c0 0.014 0.898 13.174 0.898 13.174 0.028 0.925 1.016 1.644 2.274 1.644 1.175 0 2.24-0.719 2.281-1.631l0.912-13.173-0.912-32.789c-0.041-0.885-1.106-1.603-2.281-1.603z" fill="#000000"></path>
	<path d="M111.002 64.069c-2.267 0-4.403 0.428-6.4 1.23-1.272-14.307-13.685-25.545-28.815-25.545-3.781 0-7.293 0.718-10.555 1.894-1.21 0.47-1.534 0.954-1.541 1.893v50.372c0.021 0.954 0.767 1.77 1.762 1.88 0.069 0 45.23 0.028 45.549 0.028 9.034 0 16.409-7.146 16.409-15.896 0-8.779-7.374-15.857-16.408-15.857z" fill="#000000"></path>
	<path d="M15.814 58.691c-0.829 0-1.451 0.387-1.521 0.94l-1.589 21.329 1.589 13.782c0.069 0.54 0.691 0.967 1.521 0.967 0.815 0 1.452-0.428 1.452-0.967l1.88-13.782-1.88-21.316c0-0.566-0.637-0.953-1.451-0.953z" fill="#000000"></path>
</svg>
