<?xml version="1.0" encoding="utf-8"?>
<!-- Generated by IcoMoon.io -->
<!DOCTYPE svg PUBLIC "-//W3C//DTD SVG 1.1//EN" "http://www.w3.org/Graphics/SVG/1.1/DTD/svg11.dtd">
<svg version="1.1" xmlns="http://www.w3.org/2000/svg" xmlns:xlink="http://www.w3.org/1999/xlink" width="128" height="128" viewBox="0 0 128 128">
<g id="icomoon-ignore">
	<line stroke-width="1" x1="" y1="" x2="" y2="" stroke="#449FDB" opacity=""></line>
</g>
	<path d="M112 88h-8v16h-16v8h16v16h8v-16h16v-8h-16z" fill="#000000"></path>
	<path d="M118.222 24h-62.222v-6.222c0-5.4-4.378-9.778-9.778-9.778h-36.444c-5.4 0-9.778 4.378-9.778 9.778v100.445c0 5.4 4.378 9.778 9.778 9.778h86.222v-8h-16v-24h16v-16h24v16h8v-62.222c0-5.4-4.378-9.778-9.778-9.778z" fill="#000000"></path>
	<path d="M120 120v7.831c3.972-0.731 7.1-3.858 7.831-7.831h-7.831z" fill="#000000"></path>
</svg>
