<?xml version="1.0" encoding="utf-8"?>
<!-- Generated by IcoMoon.io -->
<!DOCTYPE svg PUBLIC "-//W3C//DTD SVG 1.1//EN" "http://www.w3.org/Graphics/SVG/1.1/DTD/svg11.dtd">
<svg version="1.1" xmlns="http://www.w3.org/2000/svg" xmlns:xlink="http://www.w3.org/1999/xlink" width="128" height="128" viewBox="0 0 128 128">
<g id="icomoon-ignore">
	<line stroke-width="1" x1="" y1="" x2="" y2="" stroke="#449FDB" opacity=""></line>
</g>
	<path d="M120 86.115v-22.115c0-30.928-25.072-56-56-56s-56 25.072-56 56v22.115c-4.909 4.395-8 10.778-8 17.885 0 13.255 10.745 24 24 24v-48c-2.806 0-5.498 0.486-8 1.371v-17.371c0-26.509 21.491-48 48-48s48 21.491 48 48v17.371c-2.502-0.885-5.194-1.371-8-1.371v48c13.255 0 24-10.745 24-24 0-7.107-3.091-13.49-8-17.885z" fill="#000000"></path>
	<path d="M32 80h8v48h-8v-48z" fill="#000000"></path>
	<path d="M88 80h8v48h-8v-48z" fill="#000000"></path>
</svg>
