<?xml version="1.0" encoding="utf-8"?>
<!-- Generated by IcoMoon.io -->
<!DOCTYPE svg PUBLIC "-//W3C//DTD SVG 1.1//EN" "http://www.w3.org/Graphics/SVG/1.1/DTD/svg11.dtd">
<svg version="1.1" xmlns="http://www.w3.org/2000/svg" xmlns:xlink="http://www.w3.org/1999/xlink" width="128" height="128" viewBox="0 0 128 128">
<g id="icomoon-ignore">
	<line stroke-width="1" x1="" y1="" x2="" y2="" stroke="#449FDB" opacity=""></line>
</g>
	<path d="M65.086 121.086c3.819 3.819 10.010 3.819 13.829 0l42.171-42.172c3.819-3.819 3.819-10.010 0-13.829l-62.222-62.222c-1.834-1.834-4.321-2.864-6.914-2.864h-42.172c-5.4 0-9.778 4.378-9.778 9.778v42.172c0 2.593 1.030 5.080 2.864 6.914l62.222 62.222zM28 16c6.627 0 12 5.372 12 12s-5.373 12-12 12-12-5.373-12-12 5.372-12 12-12z" fill="#000000"></path>
</svg>
