<?xml version="1.0" encoding="utf-8"?>
<!-- Generated by IcoMoon.io -->
<!DOCTYPE svg PUBLIC "-//W3C//DTD SVG 1.1//EN" "http://www.w3.org/Graphics/SVG/1.1/DTD/svg11.dtd">
<svg version="1.1" xmlns="http://www.w3.org/2000/svg" xmlns:xlink="http://www.w3.org/1999/xlink" width="128" height="128" viewBox="0 0 128 128">
<g id="icomoon-ignore">
	<line stroke-width="1" x1="" y1="" x2="" y2="" stroke="#449FDB" opacity=""></line>
</g>
	<path d="M100 32c-0.076 0-0.15 0.005-0.226 0.005-1.987-18.002-17.243-32.005-35.774-32.005s-33.787 14.004-35.774 32.005c-0.076 0-0.15-0.005-0.226-0.005-15.464 0-28 12.536-28 28s12.536 28 28 28h72c15.464 0 28-12.536 28-28s-12.536-28-28-28z" fill="#000000"></path>
	<path d="M16.032 108c0 2.209 1.791 4 4 4h9.039l-4.519 7.829c-1.104 1.913-0.449 4.36 1.464 5.464 0.63 0.364 1.317 0.537 1.997 0.537 1.382 0 2.726-0.717 3.468-2l4.519-7.828 4.519 7.828c0.741 1.284 2.086 2 3.468 2 0.679 0 1.366-0.172 1.996-0.537 1.913-1.104 2.569-3.551 1.464-5.464l-4.518-7.829h9.039c2.209 0 4-1.791 4-4s-1.791-4-4-4h-9.039l4.519-7.829c1.104-1.913 0.449-4.36-1.464-5.464s-4.359-0.45-5.464 1.464l-4.519 7.828-4.519-7.828c-1.106-1.914-3.551-2.568-5.464-1.464s-2.569 3.551-1.464 5.464l4.519 7.829h-9.040c-2.209 0-4 1.791-4 4z" fill="#000000"></path>
	<path d="M72.032 108c0 2.209 1.791 4 4 4h9.039l-4.519 7.829c-1.104 1.913-0.449 4.36 1.464 5.464 0.63 0.364 1.317 0.537 1.996 0.537 1.382 0 2.726-0.717 3.468-2l4.519-7.828 4.519 7.828c0.741 1.284 2.086 2 3.468 2 0.679 0 1.366-0.172 1.996-0.537 1.913-1.104 2.569-3.551 1.464-5.464l-4.518-7.829h9.039c2.209 0 4-1.791 4-4s-1.791-4-4-4h-9.039l4.519-7.829c1.104-1.913 0.449-4.36-1.464-5.464s-4.359-0.45-5.464 1.464l-4.519 7.828-4.519-7.828c-1.105-1.914-3.551-2.568-5.464-1.464s-2.569 3.551-1.464 5.464l4.519 7.829h-9.040c-2.209 0-4 1.791-4 4z" fill="#000000"></path>
</svg>
