<?xml version="1.0" encoding="utf-8"?>
<!-- Generated by IcoMoon.io -->
<!DOCTYPE svg PUBLIC "-//W3C//DTD SVG 1.1//EN" "http://www.w3.org/Graphics/SVG/1.1/DTD/svg11.dtd">
<svg version="1.1" xmlns="http://www.w3.org/2000/svg" xmlns:xlink="http://www.w3.org/1999/xlink" width="128" height="128" viewBox="0 0 128 128">
<g id="icomoon-ignore">
	<line stroke-width="1" x1="" y1="" x2="" y2="" stroke="#449FDB" opacity=""></line>
</g>
	<path d="M9.778 96h108.445c5.4 0 9.778-4.378 9.778-9.778v-68.445c0-5.4-4.378-9.778-9.778-9.778h-108.445c-5.4 0-9.778 4.378-9.778 9.778v68.445c0 5.4 4.378 9.778 9.778 9.778zM8 16h112v72h-112v-72z" fill="#000000"></path>
	<path d="M7.92 120h112.16c4.374 0 7.92-3.546 7.92-7.92v-0.16c0-4.374-3.546-7.92-7.92-7.92h-112.16c-4.374 0-7.92 3.546-7.92 7.92v0.16c0 4.374 3.546 7.92 7.92 7.92z" fill="#000000"></path>
</svg>
