<?xml version="1.0" encoding="utf-8"?>
<!-- Generated by IcoMoon.io -->
<!DOCTYPE svg PUBLIC "-//W3C//DTD SVG 1.1//EN" "http://www.w3.org/Graphics/SVG/1.1/DTD/svg11.dtd">
<svg version="1.1" xmlns="http://www.w3.org/2000/svg" xmlns:xlink="http://www.w3.org/1999/xlink" width="128" height="128" viewBox="0 0 128 128">
<g id="icomoon-ignore">
	<line stroke-width="1" x1="" y1="" x2="" y2="" stroke="#449FDB" opacity=""></line>
</g>
	<path d="M3.798 80h12.338c1.539 0 2.919 0.931 3.505 2.354 0.006 0.016 0.013 0.031 0.020 0.047 0.586 1.418 0.266 3.045-0.819 4.131l-8.725 8.725c-1.483 1.484-1.483 3.888 0 5.371l17.256 17.256c1.483 1.484 3.888 1.484 5.371 0l8.724-8.725c1.085-1.085 2.713-1.404 4.131-0.819 0.016 0.006 0.031 0.013 0.047 0.019 1.422 0.586 2.354 1.966 2.354 3.505v12.338c0 2.098 1.7 3.798 3.798 3.798h24.404c2.098 0 3.798-1.701 3.798-3.798v-12.338c0-1.539 0.931-2.919 2.354-3.505 0.016-0.006 0.031-0.013 0.047-0.019 1.418-0.586 3.045-0.266 4.131 0.819l8.724 8.725c1.484 1.484 3.889 1.484 5.371 0l17.256-17.256c1.484-1.484 1.484-3.888 0-5.371l-8.725-8.725c-1.085-1.085-1.404-2.713-0.819-4.131 0.006-0.016 0.013-0.031 0.019-0.047 0.586-1.422 1.966-2.354 3.505-2.354h12.338c2.098 0 3.798-1.701 3.798-3.798v-24.404c0-2.098-1.701-3.798-3.798-3.798h-12.338c-1.539 0-2.919-0.931-3.505-2.354-0.006-0.016-0.013-0.031-0.019-0.047-0.586-1.418-0.266-3.045 0.819-4.131l8.725-8.724c1.484-1.483 1.484-3.888 0-5.372l-17.256-17.256c-1.483-1.483-3.888-1.483-5.371 0l-8.724 8.725c-1.085 1.084-2.713 1.404-4.131 0.819-0.016-0.006-0.031-0.013-0.047-0.020-1.422-0.584-2.354-1.965-2.354-3.504v-12.338c0-2.098-1.701-3.798-3.798-3.798h-24.404c-2.098 0-3.798 1.7-3.798 3.798v12.338c0 1.539-0.931 2.919-2.354 3.505-0.016 0.006-0.031 0.013-0.047 0.020-1.418 0.586-3.045 0.266-4.131-0.819l-8.724-8.725c-1.483-1.483-3.889-1.483-5.372 0l-17.256 17.256c-1.483 1.483-1.483 3.888 0 5.371l8.725 8.724c1.084 1.084 1.404 2.713 0.819 4.131-0.006 0.016-0.013 0.031-0.020 0.047-0.585 1.421-1.966 2.353-3.505 2.353h-12.338c-2.098 0-3.798 1.7-3.798 3.798v24.404c0 2.098 1.7 3.798 3.798 3.798zM64 32c17.673 0 32 14.327 32 32s-14.327 32-32 32-32-14.327-32-32 14.327-32 32-32z" fill="#000000"></path>
	<path d="M72 64c0 4.418-3.582 8-8 8s-8-3.582-8-8c0-4.418 3.582-8 8-8s8 3.582 8 8z" fill="#000000"></path>
</svg>
