<?xml version="1.0" encoding="utf-8"?>
<!-- Generated by IcoMoon.io -->
<!DOCTYPE svg PUBLIC "-//W3C//DTD SVG 1.1//EN" "http://www.w3.org/Graphics/SVG/1.1/DTD/svg11.dtd">
<svg version="1.1" xmlns="http://www.w3.org/2000/svg" xmlns:xlink="http://www.w3.org/1999/xlink" width="128" height="128" viewBox="0 0 128 128">
<g id="icomoon-ignore">
	<line stroke-width="1" x1="" y1="" x2="" y2="" stroke="#449FDB" opacity=""></line>
</g>
	<path d="M1.813 58.93c-0.074 0.091-0.139 0.187-0.209 0.279-0.087 0.115-0.177 0.229-0.257 0.349-0.075 0.113-0.141 0.23-0.21 0.345-0.065 0.108-0.133 0.214-0.193 0.325-0.063 0.119-0.117 0.242-0.175 0.363-0.054 0.115-0.111 0.228-0.161 0.346-0.049 0.119-0.089 0.24-0.132 0.361-0.045 0.125-0.093 0.25-0.133 0.378-0.037 0.122-0.064 0.245-0.094 0.369-0.033 0.13-0.069 0.258-0.095 0.39-0.028 0.143-0.045 0.287-0.066 0.432-0.017 0.114-0.038 0.227-0.050 0.342-0.052 0.525-0.052 1.055 0 1.58 0.011 0.115 0.033 0.228 0.050 0.342 0.021 0.144 0.037 0.289 0.066 0.432 0.026 0.132 0.062 0.26 0.095 0.39 0.031 0.123 0.058 0.247 0.094 0.369 0.039 0.129 0.087 0.252 0.133 0.378 0.044 0.12 0.083 0.242 0.132 0.361s0.107 0.231 0.161 0.346c0.057 0.122 0.111 0.243 0.175 0.363 0.059 0.111 0.128 0.217 0.193 0.325 0.069 0.115 0.134 0.232 0.21 0.345 0.080 0.12 0.17 0.234 0.257 0.349 0.070 0.093 0.134 0.189 0.209 0.279 0.335 0.408 0.709 0.782 1.117 1.117 0.091 0.074 0.185 0.138 0.277 0.207 0.116 0.087 0.23 0.177 0.351 0.258 0.113 0.076 0.23 0.141 0.346 0.21 0.109 0.065 0.214 0.132 0.325 0.192 0.118 0.063 0.24 0.117 0.361 0.174 0.115 0.055 0.23 0.113 0.349 0.162 0.117 0.049 0.237 0.088 0.356 0.131 0.127 0.045 0.253 0.094 0.382 0.133 0.12 0.037 0.241 0.063 0.362 0.093 0.131 0.033 0.262 0.070 0.396 0.097 0.139 0.028 0.28 0.043 0.421 0.064 0.118 0.017 0.234 0.039 0.353 0.051 0.262 0.028 0.525 0.043 0.788 0.043h8v46.222c0 5.4 4.378 9.778 9.778 9.778h22.222v-48h32v48h22.222c5.4 0 9.778-4.378 9.778-9.778v-46.222h8c0.263 0 0.526-0.014 0.789-0.040 0.119-0.011 0.236-0.034 0.353-0.051 0.141-0.020 0.281-0.037 0.421-0.064 0.134-0.027 0.265-0.064 0.397-0.097 0.121-0.030 0.242-0.057 0.362-0.093 0.13-0.039 0.255-0.088 0.382-0.133 0.119-0.043 0.239-0.082 0.356-0.131 0.119-0.049 0.233-0.107 0.349-0.162 0.121-0.057 0.242-0.11 0.361-0.174 0.111-0.059 0.217-0.128 0.325-0.192 0.115-0.069 0.233-0.134 0.346-0.21 0.121-0.081 0.235-0.171 0.351-0.258 0.093-0.069 0.187-0.133 0.277-0.207 0.408-0.335 0.782-0.709 1.117-1.117 0.074-0.091 0.139-0.187 0.209-0.279 0.087-0.115 0.177-0.229 0.257-0.349 0.076-0.113 0.141-0.23 0.21-0.345 0.065-0.109 0.132-0.214 0.193-0.325 0.064-0.12 0.118-0.243 0.175-0.365 0.054-0.115 0.111-0.227 0.16-0.344 0.050-0.12 0.090-0.242 0.133-0.363 0.044-0.124 0.093-0.248 0.131-0.376 0.037-0.122 0.064-0.245 0.095-0.369 0.033-0.13 0.069-0.258 0.095-0.39 0.028-0.143 0.045-0.287 0.066-0.432 0.017-0.114 0.038-0.227 0.050-0.342 0.053-0.525 0.053-1.055 0-1.581-0.011-0.115-0.033-0.227-0.050-0.342-0.020-0.144-0.037-0.289-0.066-0.432-0.026-0.133-0.062-0.261-0.095-0.39-0.031-0.123-0.058-0.247-0.095-0.369-0.038-0.128-0.086-0.251-0.131-0.376-0.043-0.122-0.084-0.243-0.133-0.363-0.049-0.117-0.106-0.23-0.16-0.344-0.057-0.122-0.111-0.245-0.175-0.364-0.059-0.111-0.128-0.217-0.193-0.325-0.069-0.115-0.134-0.232-0.21-0.345-0.080-0.12-0.17-0.234-0.257-0.349-0.070-0.093-0.134-0.188-0.209-0.279-0.168-0.205-0.345-0.401-0.531-0.587l-55.999-56.002c-1.448-1.448-3.448-2.343-5.657-2.343s-4.209 0.895-5.657 2.343l-55.999 55.999c-0.187 0.187-0.363 0.383-0.531 0.587z" fill="#000000"></path>
</svg>
