<?xml version="1.0" encoding="utf-8"?>
<!-- Generated by IcoMoon.io -->
<!DOCTYPE svg PUBLIC "-//W3C//DTD SVG 1.1//EN" "http://www.w3.org/Graphics/SVG/1.1/DTD/svg11.dtd">
<svg version="1.1" xmlns="http://www.w3.org/2000/svg" xmlns:xlink="http://www.w3.org/1999/xlink" width="128" height="128" viewBox="0 0 128 128">
<g id="icomoon-ignore">
	<line stroke-width="1" x1="" y1="" x2="" y2="" stroke="#449FDB" opacity=""></line>
</g>
	<path d="M16 20.040c0 2.187 1.773 3.96 3.96 3.96h88.080c2.187 0 3.96-1.773 3.96-3.96v-0.080c0-2.187-1.773-3.96-3.96-3.96h-4.040v-8c0-4.419-3.581-8-8-8h-64c-4.419 0-8 3.581-8 8v8h-4.040c-2.187 0-3.96 1.773-3.96 3.96v0.080z" fill="#000000"></path>
	<path d="M39.361 128h49.278c4.161 0 7.627-3.189 7.972-7.335l0.722-8.665h-66.667l0.722 8.665c0.346 4.146 3.812 7.335 7.972 7.335z" fill="#000000"></path>
	<path d="M104 32h-80l6 72h68l6-72zM64 84c-8.837 0-16-7.163-16-16s7.163-16 16-16 16 7.163 16 16-7.163 16-16 16z" fill="#000000"></path>
</svg>
