<?xml version="1.0" encoding="utf-8"?>
<!-- Generated by IcoMoon.io -->
<!DOCTYPE svg PUBLIC "-//W3C//DTD SVG 1.1//EN" "http://www.w3.org/Graphics/SVG/1.1/DTD/svg11.dtd">
<svg version="1.1" xmlns="http://www.w3.org/2000/svg" xmlns:xlink="http://www.w3.org/1999/xlink" width="128" height="128" viewBox="0 0 128 128">
<g id="icomoon-ignore">
	<line stroke-width="1" x1="" y1="" x2="" y2="" stroke="#449FDB" opacity=""></line>
</g>
	<path d="M112 88h-8v16h-16v8h16v16h8v-16h16v-8h-16z" fill="#000000"></path>
	<path d="M96 96v-16h20l-3.253-39.035c-0.422-5.068-4.658-8.965-9.744-8.965h-7.003c0-17.673-14.327-32-32-32s-32 14.327-32 32h-7.003c-5.086 0-9.322 3.898-9.744 8.965l-6.371 76.445c-0.476 5.701 4.024 10.59 9.744 10.59h77.373v-8h-16v-24h16zM40 32v0c0-13.255 10.745-24 24-24s24 10.745 24 24h-48z" fill="#000000"></path>
</svg>
