<?xml version="1.0" encoding="utf-8"?>
<!-- Generated by IcoMoon.io -->
<!DOCTYPE svg PUBLIC "-//W3C//DTD SVG 1.1//EN" "http://www.w3.org/Graphics/SVG/1.1/DTD/svg11.dtd">
<svg version="1.1" xmlns="http://www.w3.org/2000/svg" xmlns:xlink="http://www.w3.org/1999/xlink" width="128" height="128" viewBox="0 0 128 128">
<g id="icomoon-ignore">
	<line stroke-width="1" x1="" y1="" x2="" y2="" stroke="#449FDB" opacity=""></line>
</g>
	<path d="M25.778 128h84.445c5.4 0 9.778-4.378 9.778-9.778v-54.222h8v-14.222c0-5.4-4.378-9.778-9.778-9.778h-13.749l-9.797-19.595c0.835-1.264 1.325-2.777 1.325-4.405 0-4.419-3.581-8-8-8s-8 3.581-8 8c0 4.254 3.323 7.724 7.516 7.976l8.011 16.024h-55.054l8.012-16.024c4.191-0.253 7.515-3.722 7.515-7.976 0-4.419-3.581-8-8-8s-8 3.581-8 8c0 1.628 0.489 3.141 1.325 4.405l-9.798 19.595h-13.749c-5.4 0-9.778 4.378-9.778 9.778v14.222h8v54.222c0 5.4 4.378 9.778 9.778 9.778zM90.827 18.827c-0.747 0.747-1.778 1.173-2.827 1.173s-2.080-0.427-2.828-1.173c-0.747-0.747-1.172-1.778-1.172-2.827s0.426-2.080 1.172-2.827c0.748-0.747 1.778-1.173 2.828-1.173s2.080 0.427 2.827 1.173 1.173 1.778 1.173 2.827c0 1.049-0.427 2.080-1.173 2.827zM45.172 13.173c0.748-0.747 1.778-1.173 2.828-1.173s2.080 0.427 2.827 1.173 1.173 1.778 1.173 2.827c0 1.058-0.427 2.089-1.173 2.827-0.747 0.747-1.778 1.173-2.827 1.173s-2.080-0.427-2.828-1.173c-0.747-0.738-1.172-1.769-1.172-2.827s0.426-2.089 1.172-2.827zM40 108.040c0 2.187-1.773 3.96-3.96 3.96h-0.080c-2.187 0-3.96-1.773-3.96-3.96v-40.080c0-2.187 1.773-3.96 3.96-3.96h0.080c2.187 0 3.96 1.773 3.96 3.96v40.080zM103.96 108.040c0 2.187-1.773 3.96-3.96 3.96h-0.080c-2.187 0-3.96-1.773-3.96-3.96v-40.080c0-2.187 1.773-3.96 3.96-3.96h0.080c2.187 0 3.96 1.773 3.96 3.96v40.080zM80 67.96c0-2.187 1.773-3.96 3.96-3.96h0.080c2.187 0 3.96 1.773 3.96 3.96v40.080c0 2.187-1.773 3.96-3.96 3.96h-0.080c-2.187 0-3.96-1.773-3.96-3.96v-40.080zM64 67.96c0-2.187 1.773-3.96 3.96-3.96h0.080c2.187 0 3.96 1.773 3.96 3.96v40.080c0 2.187-1.773 3.96-3.96 3.96h-0.080c-2.187 0-3.96-1.773-3.96-3.96v-40.080zM48 67.96c0-2.187 1.773-3.96 3.96-3.96h0.080c2.187 0 3.96 1.773 3.96 3.96v40.080c0 2.187-1.773 3.96-3.96 3.96h-0.080c-2.187 0-3.96-1.773-3.96-3.96v-40.080z" fill="#000000"></path>
</svg>
