<?xml version="1.0" encoding="utf-8"?>
<!-- Generated by IcoMoon.io -->
<!DOCTYPE svg PUBLIC "-//W3C//DTD SVG 1.1//EN" "http://www.w3.org/Graphics/SVG/1.1/DTD/svg11.dtd">
<svg version="1.1" xmlns="http://www.w3.org/2000/svg" xmlns:xlink="http://www.w3.org/1999/xlink" width="128" height="128" viewBox="0 0 128 128">
<g id="icomoon-ignore">
	<line stroke-width="1" x1="" y1="" x2="" y2="" stroke="#449FDB" opacity=""></line>
</g>
	<path d="M20 0c-2.209 0-4 1.791-4 4v48c0 2.209 1.791 4 4 4h32c2.209 0 4-1.791 4-4v-48c0-2.209-1.791-4-4-4s-4 1.791-4 4v44h-8v-44c0-2.209-1.791-4-4-4s-4 1.791-4 4v44h-8v-44c0-2.209-1.791-4-4-4z" fill="#000000"></path>
	<path d="M36 128c6.627 0 12-5.373 12-12v-52h-24v52c0 6.627 5.372 12 12 12z" fill="#000000"></path>
	<path d="M80 116c0 6.627 5.373 12 12 12s12-5.373 12-12v-36h-24v36z" fill="#000000"></path>
	<path d="M80 0v72h32c0-72-32-72-32-72z" fill="#000000"></path>
</svg>
