<?xml version="1.0" encoding="utf-8"?>
<!-- Generated by IcoMoon.io -->
<!DOCTYPE svg PUBLIC "-//W3C//DTD SVG 1.1//EN" "http://www.w3.org/Graphics/SVG/1.1/DTD/svg11.dtd">
<svg version="1.1" xmlns="http://www.w3.org/2000/svg" xmlns:xlink="http://www.w3.org/1999/xlink" width="128" height="128" viewBox="0 0 128 128">
<g id="icomoon-ignore">
	<line stroke-width="1" x1="" y1="" x2="" y2="" stroke="#449FDB" opacity=""></line>
</g>
	<path d="M68.040 16c2.187 0 3.96-1.773 3.96-3.96v-8.080c0-2.187-1.773-3.96-3.96-3.96h-0.080c-2.187 0-3.96 1.773-3.96 3.96v8.080c0 2.187 1.773 3.96 3.96 3.96h0.080z" fill="#000000"></path>
	<path d="M84.040 16c2.187 0 3.96-1.773 3.96-3.96v-8.080c0-2.187-1.773-3.96-3.96-3.96h-0.080c-2.187 0-3.96 1.773-3.96 3.96v8.080c0 2.187 1.773 3.96 3.96 3.96h0.080z" fill="#000000"></path>
	<path d="M100.040 16c2.187 0 3.96-1.773 3.96-3.96v-8.080c0-2.187-1.773-3.96-3.96-3.96h-0.080c-2.187 0-3.96 1.773-3.96 3.96v8.080c0 2.187 1.773 3.96 3.96 3.96h0.080z" fill="#000000"></path>
	<path d="M52.040 16c2.187 0 3.96-1.773 3.96-3.96v-8.080c0-2.187-1.773-3.96-3.96-3.96h-0.080c-2.187 0-3.96 1.773-3.96 3.96v8.080c0 2.187 1.773 3.96 3.96 3.96h0.080z" fill="#000000"></path>
	<path d="M16 104h16v8c0 8.837 7.163 16 16 16h56c8.837 0 16-7.163 16-16v-80c0-4.419-3.581-8-8-8h-72c-4.419 0-8 3.581-8 8v8h-16c-8.836 0-16 7.163-16 16v32c0 8.837 7.163 16 16 16zM8 56c0-4.419 3.581-8 8-8h16v48h-16c-4.419 0-8-3.581-8-8v-32z" fill="#000000"></path>
</svg>
