<?xml version="1.0" encoding="utf-8"?>
<!-- Generated by IcoMoon.io -->
<!DOCTYPE svg PUBLIC "-//W3C//DTD SVG 1.1//EN" "http://www.w3.org/Graphics/SVG/1.1/DTD/svg11.dtd">
<svg version="1.1" xmlns="http://www.w3.org/2000/svg" xmlns:xlink="http://www.w3.org/1999/xlink" width="128" height="128" viewBox="0 0 128 128">
<g id="icomoon-ignore">
	<line stroke-width="1" x1="" y1="" x2="" y2="" stroke="#449FDB" opacity=""></line>
</g>
	<path d="M120.080 16h-0.16c-4.374 0-7.92 3.546-7.92 7.92v1.147l-105.057 14.007c-3.975 0.531-6.943 3.921-6.943 7.931v33.991c0 4.010 2.968 7.4 6.943 7.93l17.057 2.275v20.8c0 4.419 3.581 8 8 8h32c4.419 0 8-3.581 8-8v-14.4l40 5.333v1.067c0 4.374 3.546 7.92 7.92 7.92h0.16c4.374 0 7.92-3.546 7.92-7.92v-80.080c0-4.374-3.546-7.92-7.92-7.92zM64 112h-32v-19.733l32 4.267v15.467z" fill="#000000"></path>
</svg>
