<?xml version="1.0" encoding="utf-8"?>
<!-- Generated by IcoMoon.io -->
<!DOCTYPE svg PUBLIC "-//W3C//DTD SVG 1.1//EN" "http://www.w3.org/Graphics/SVG/1.1/DTD/svg11.dtd">
<svg version="1.1" xmlns="http://www.w3.org/2000/svg" xmlns:xlink="http://www.w3.org/1999/xlink" width="128" height="128" viewBox="0 0 128 128">
<g id="icomoon-ignore">
	<line stroke-width="1" x1="" y1="" x2="" y2="" stroke="#449FDB" opacity=""></line>
</g>
	<path d="M80 120c0 0 0 8 8 8s8-8 8-8c0-24 0-40 0-40h21.076c5.828 0 10.362-5.066 9.718-10.858l-5.828-52.444c-0.55-4.952-4.735-8.698-9.717-8.698h-23.249c-16 0-24 8-32 8s-16 0-16 0v64c0 0 8 0 16 0 16 0 24 40 24 40z" fill="#000000"></path>
	<path d="M32 78.222v-60.444c0-5.4-4.378-9.778-9.778-9.778h-22.222v80h22.222c5.4 0 9.778-4.378 9.778-9.778zM16 80c-4.419 0-8-3.581-8-8s3.581-8 8-8 8 3.581 8 8-3.581 8-8 8z" fill="#000000"></path>
</svg>
