<?xml version="1.0" encoding="utf-8"?>
<!-- Generated by IcoMoon.io -->
<!DOCTYPE svg PUBLIC "-//W3C//DTD SVG 1.1//EN" "http://www.w3.org/Graphics/SVG/1.1/DTD/svg11.dtd">
<svg version="1.1" xmlns="http://www.w3.org/2000/svg" xmlns:xlink="http://www.w3.org/1999/xlink" width="128" height="128" viewBox="0 0 128 128">
<g id="icomoon-ignore">
	<line stroke-width="1" x1="" y1="" x2="" y2="" stroke="#449FDB" opacity=""></line>
</g>
	<path d="M14.287-0.139c-8.871 0-14.613 5.909-14.613 13.682 0 7.564 5.533 13.661 14.286 13.661 9.184 0 14.731-6.097 14.731-13.661-0.181-7.772-5.547-13.682-14.405-13.682z" fill="#000000"></path>
	<path d="M0.37 38.014h27.377v88.186h-27.377v-88.186z" fill="#000000"></path>
	<path d="M96.278 36.074c-14.765 0-23.622 8.461-27.238 14.273h-0.501l-1.308-12.333h-23.802c0.375 7.939 0.757 17.129 0.757 28.169v60.030h27.371v-50.847c0-2.495 0.16-5.026 0.924-6.883 1.926-5.046 6.501-10.226 14.051-10.226 9.927 0 13.862 7.709 13.862 19.104v48.852h27.433v-52.085c-0.001-25.958-13.6-38.055-31.55-38.055z" fill="#000000"></path>
</svg>
