<?xml version="1.0" encoding="utf-8"?>
<!-- Generated by IcoMoon.io -->
<!DOCTYPE svg PUBLIC "-//W3C//DTD SVG 1.1//EN" "http://www.w3.org/Graphics/SVG/1.1/DTD/svg11.dtd">
<svg version="1.1" xmlns="http://www.w3.org/2000/svg" xmlns:xlink="http://www.w3.org/1999/xlink" width="128" height="128" viewBox="0 0 128 128">
<g id="icomoon-ignore">
	<line stroke-width="1" x1="" y1="" x2="" y2="" stroke="#449FDB" opacity=""></line>
</g>
	<path d="M52 104c11.472 0 22.071-3.723 30.67-10.016l31.673 31.673c3.124 3.124 8.189 3.124 11.314 0s3.124-8.189 0-11.314l-31.673-31.673c6.293-8.599 10.016-19.198 10.016-30.67 0-28.719-23.281-52-52-52s-52 23.281-52 52 23.281 52 52 52zM52 8c24.3 0 44 19.7 44 44s-19.7 44-44 44-44-19.7-44-44 19.7-44 44-44z" fill="#000000"></path>
</svg>
