<?xml version="1.0" encoding="utf-8"?>
<!-- Generated by IcoMoon.io -->
<!DOCTYPE svg PUBLIC "-//W3C//DTD SVG 1.1//EN" "http://www.w3.org/Graphics/SVG/1.1/DTD/svg11.dtd">
<svg version="1.1" xmlns="http://www.w3.org/2000/svg" xmlns:xlink="http://www.w3.org/1999/xlink" width="128" height="128" viewBox="0 0 128 128">
<g id="icomoon-ignore">
	<line stroke-width="1" x1="" y1="" x2="" y2="" stroke="#449FDB" opacity=""></line>
</g>
	<path d="M9.778 112h22.222v-6.222c0-5.4 4.378-9.778 9.778-9.778h44.445c5.4 0 9.778 4.378 9.778 9.778v6.222h22.222c5.4 0 9.778-4.378 9.778-9.778v-68.445c0-5.4-4.378-9.778-9.778-9.778h-108.445c-5.4 0-9.778 4.378-9.778 9.778v68.445c0 5.4 4.378 9.778 9.778 9.778zM32 48h64c8.837 0 16 7.163 16 16s-7.163 16-16 16h-64c-8.837 0-16-7.163-16-16s7.163-16 16-16z" fill="#000000"></path>
	<path d="M40 64c0 4.418-3.582 8-8 8s-8-3.582-8-8c0-4.418 3.582-8 8-8s8 3.582 8 8z" fill="#000000"></path>
	<path d="M82.158 72c-1.365-2.355-2.158-5.083-2.158-8s0.794-5.645 2.158-8h-36.316c1.364 2.355 2.158 5.083 2.158 8s-0.794 5.645-2.158 8h36.316z" fill="#000000"></path>
	<path d="M104 64c0 4.418-3.582 8-8 8s-8-3.582-8-8c0-4.418 3.582-8 8-8s8 3.582 8 8z" fill="#000000"></path>
</svg>
