<?xml version="1.0" encoding="utf-8"?>
<!-- Generated by IcoMoon.io -->
<!DOCTYPE svg PUBLIC "-//W3C//DTD SVG 1.1//EN" "http://www.w3.org/Graphics/SVG/1.1/DTD/svg11.dtd">
<svg version="1.1" xmlns="http://www.w3.org/2000/svg" xmlns:xlink="http://www.w3.org/1999/xlink" width="128" height="128" viewBox="0 0 128 128">
<g id="icomoon-ignore">
	<line stroke-width="1" x1="" y1="" x2="" y2="" stroke="#449FDB" opacity=""></line>
</g>
	<path d="M88 104h40v8h-40v-8z" fill="#000000"></path>
	<path d="M9.778 128h108.445c4.792 0 8.772-3.45 9.609-8h-47.831v-24h45.842c-2.768-4.778-7.924-8-13.842-8h-24c-4.419 0-8-3.581-8-8v-4.291c9.562-5.534 16-15.866 16-27.709v-16c0-17.673-14.327-32-32-32s-32 14.327-32 32v16c0 11.843 6.438 22.174 16 27.709v4.291c0 4.419-3.581 8-8 8h-24c-8.836 0-16 7.163-16 16v14.222c0 5.4 4.378 9.778 9.778 9.778z" fill="#000000"></path>
</svg>
