<?xml version="1.0" encoding="utf-8"?>
<!-- Generated by IcoMoon.io -->
<!DOCTYPE svg PUBLIC "-//W3C//DTD SVG 1.1//EN" "http://www.w3.org/Graphics/SVG/1.1/DTD/svg11.dtd">
<svg version="1.1" xmlns="http://www.w3.org/2000/svg" xmlns:xlink="http://www.w3.org/1999/xlink" width="128" height="128" viewBox="0 0 128 128">
<g id="icomoon-ignore">
	<line stroke-width="1" x1="" y1="" x2="" y2="" stroke="#449FDB" opacity=""></line>
</g>
	<path d="M40 80c5.061 0 9.9-0.949 14.356-2.665l12.389 12.388h11.314v11.314h11.314v11.314h11.314v11.314c6.249 6.248 16.379 6.248 22.627 0s6.248-16.379 0-22.627l-46.178-46.177c1.841-4.596 2.864-9.607 2.864-14.861 0-22.091-17.909-40-40-40s-40 17.909-40 40 17.909 40 40 40zM40 32c4.419 0 8 3.581 8 8s-3.581 8-8 8-8-3.581-8-8 3.581-8 8-8z" fill="#000000"></path>
</svg>
