<?xml version="1.0" encoding="utf-8"?>
<!-- Generated by IcoMoon.io -->
<!DOCTYPE svg PUBLIC "-//W3C//DTD SVG 1.1//EN" "http://www.w3.org/Graphics/SVG/1.1/DTD/svg11.dtd">
<svg version="1.1" xmlns="http://www.w3.org/2000/svg" xmlns:xlink="http://www.w3.org/1999/xlink" width="128" height="128" viewBox="0 0 128 128">
<g id="icomoon-ignore">
	<line stroke-width="1" x1="" y1="" x2="" y2="" stroke="#449FDB" opacity=""></line>
</g>
	<path d="M48 36v16c0 11.169 6.541 20.808 16 25.301v2.699c0 4.419-3.581 8-8 8h-16c-8.837 0-16 7.163-16 16v14.222c0 5.4 4.378 9.778 9.778 9.778h62.222v-8h-16v-24h16v-8c-4.419 0-8-3.581-8-8v-2.699c9.459-4.494 16-14.133 16-25.301v-16c0-15.464-12.536-28-28-28s-28 12.536-28 28z" fill="#000000"></path>
	<path d="M9.778 120h6.312c-0.059-0.585-0.090-1.178-0.090-1.778v-14.222c0-13.234 10.766-24 24-24h13.391c-8.321-6.754-13.391-17.045-13.391-28v-16c0-15.353 9.665-28.485 23.227-33.651-3.438-1.508-7.234-2.349-11.227-2.349-15.464 0-28 12.536-28 28v16c0 11.169 6.541 20.808 16 25.301v2.699c0 4.419-3.581 8-8 8h-16c-8.836 0-16 7.163-16 16v14.222c0 5.4 4.378 9.778 9.778 9.778z" fill="#000000"></path>
	<path d="M112 88h-8v16h-16v8h16v16h8v-16h16v-8h-16z" fill="#000000"></path>
	<path d="M120 90.158v5.842h5.842c-1.403-2.422-3.419-4.439-5.842-5.842z" fill="#000000"></path>
	<path d="M120 120v7.831c3.972-0.731 7.1-3.858 7.831-7.831h-7.831z" fill="#000000"></path>
</svg>
