<?xml version="1.0" encoding="utf-8"?>
<!-- Generated by IcoMoon.io -->
<!DOCTYPE svg PUBLIC "-//W3C//DTD SVG 1.1//EN" "http://www.w3.org/Graphics/SVG/1.1/DTD/svg11.dtd">
<svg version="1.1" xmlns="http://www.w3.org/2000/svg" xmlns:xlink="http://www.w3.org/1999/xlink" width="128" height="128" viewBox="0 0 128 128">
<g id="icomoon-ignore">
	<line stroke-width="1" x1="" y1="" x2="" y2="" stroke="#449FDB" opacity=""></line>
</g>
	<path d="M88 64v-40c0-13.255-10.745-24-24-24s-24 10.745-24 24v40c0 13.255 10.745 24 24 24s24-10.745 24-24z" fill="#000000"></path>
	<path d="M112 64v-4c0-2.209-1.791-4-4-4s-4 1.791-4 4v4c0 22.091-17.909 40-40 40s-40-17.909-40-40v-4c0-2.209-1.791-4-4-4s-4 1.791-4 4v4c0 23.782 17.3 43.514 40 47.323v8.677h-12.040c-2.187 0-3.96 1.773-3.96 3.96v0.080c0 2.187 1.773 3.96 3.96 3.96h40.080c2.187 0 3.96-1.773 3.96-3.96v-0.080c0-2.187-1.773-3.96-3.96-3.96h-12.040v-8.677c22.7-3.81 40-23.541 40-47.324z" fill="#000000"></path>
</svg>
