<?xml version="1.0" encoding="utf-8"?>
<!-- Generated by IcoMoon.io -->
<!DOCTYPE svg PUBLIC "-//W3C//DTD SVG 1.1//EN" "http://www.w3.org/Graphics/SVG/1.1/DTD/svg11.dtd">
<svg version="1.1" xmlns="http://www.w3.org/2000/svg" xmlns:xlink="http://www.w3.org/1999/xlink" width="128" height="128" viewBox="0 0 128 128">
<g id="icomoon-ignore">
	<line stroke-width="1" x1="" y1="" x2="" y2="" stroke="#449FDB" opacity=""></line>
</g>
	<path d="M25.552 116.73c0.090 0.122 0.181 0.241 0.276 0.356 0.076 0.093 0.155 0.184 0.236 0.274 0.091 0.1 0.185 0.2 0.28 0.295s0.195 0.189 0.296 0.28c0.090 0.081 0.18 0.16 0.274 0.237 0.116 0.095 0.235 0.187 0.357 0.276 0.089 0.065 0.178 0.129 0.268 0.189 0.133 0.089 0.269 0.173 0.41 0.256 0.091 0.053 0.183 0.108 0.277 0.157 0.136 0.074 0.274 0.139 0.413 0.203 0.108 0.051 0.216 0.101 0.326 0.147 0.119 0.049 0.239 0.091 0.359 0.133 0.131 0.047 0.263 0.094 0.398 0.134 0.102 0.031 0.205 0.054 0.308 0.081 0.15 0.038 0.299 0.076 0.451 0.106 0.099 0.019 0.198 0.032 0.298 0.047 0.154 0.024 0.307 0.048 0.461 0.062 0.114 0.011 0.227 0.014 0.341 0.019 0.138 0.007 0.276 0.016 0.415 0.016s0.277-0.009 0.415-0.016c0.114-0.005 0.227-0.009 0.341-0.019 0.155-0.015 0.309-0.038 0.461-0.062 0.099-0.015 0.199-0.028 0.298-0.047 0.152-0.029 0.302-0.069 0.452-0.107 0.103-0.026 0.206-0.050 0.309-0.080 0.134-0.040 0.266-0.088 0.398-0.134 0.12-0.043 0.241-0.085 0.359-0.133 0.11-0.045 0.218-0.096 0.326-0.147 0.138-0.064 0.276-0.13 0.411-0.203 0.094-0.050 0.186-0.104 0.277-0.157 0.139-0.082 0.276-0.167 0.409-0.256 0.091-0.061 0.179-0.124 0.269-0.189 0.122-0.090 0.241-0.181 0.357-0.276 0.093-0.076 0.184-0.156 0.273-0.237 0.101-0.091 0.2-0.185 0.296-0.28s0.188-0.194 0.28-0.295c0.081-0.090 0.16-0.181 0.236-0.274 0.095-0.115 0.187-0.235 0.276-0.356 0.065-0.089 0.129-0.178 0.189-0.269 0.089-0.132 0.173-0.27 0.255-0.409 1.385-2.362 1.528-5.369 0.102-7.935l-6.993-12.588-6.994 12.588c-1.426 2.566-1.282 5.573 0.103 7.935 0.082 0.139 0.166 0.276 0.255 0.409 0.062 0.091 0.126 0.18 0.191 0.269z" fill="#000000"></path>
	<path d="M57.552 116.73c0.090 0.122 0.181 0.241 0.276 0.356 0.077 0.093 0.156 0.184 0.236 0.274 0.092 0.1 0.185 0.2 0.28 0.295s0.195 0.189 0.296 0.28c0.090 0.081 0.181 0.16 0.274 0.237 0.115 0.095 0.235 0.187 0.356 0.276 0.089 0.065 0.178 0.129 0.269 0.189 0.133 0.089 0.269 0.173 0.41 0.256 0.092 0.053 0.183 0.108 0.277 0.157 0.136 0.074 0.274 0.139 0.413 0.203 0.108 0.051 0.216 0.101 0.326 0.147 0.119 0.049 0.239 0.091 0.359 0.133 0.132 0.047 0.263 0.094 0.398 0.134 0.102 0.031 0.205 0.054 0.309 0.081 0.15 0.038 0.3 0.076 0.452 0.106 0.099 0.019 0.198 0.032 0.298 0.047 0.154 0.024 0.307 0.048 0.461 0.062 0.114 0.011 0.227 0.014 0.341 0.019 0.138 0.007 0.276 0.016 0.415 0.016s0.277-0.009 0.415-0.016c0.114-0.005 0.228-0.009 0.341-0.019 0.155-0.015 0.308-0.038 0.461-0.062 0.1-0.015 0.199-0.028 0.298-0.047 0.152-0.029 0.302-0.069 0.451-0.107 0.103-0.026 0.206-0.050 0.308-0.080 0.134-0.040 0.266-0.088 0.398-0.134 0.12-0.043 0.241-0.085 0.359-0.133 0.11-0.045 0.218-0.096 0.326-0.147 0.138-0.064 0.276-0.13 0.412-0.203 0.094-0.050 0.186-0.104 0.277-0.157 0.139-0.082 0.276-0.167 0.409-0.256 0.091-0.061 0.18-0.124 0.269-0.189 0.122-0.090 0.241-0.181 0.357-0.276 0.093-0.076 0.184-0.156 0.273-0.237 0.101-0.091 0.2-0.185 0.296-0.28s0.189-0.194 0.28-0.295c0.081-0.090 0.16-0.181 0.237-0.274 0.095-0.115 0.187-0.235 0.276-0.356 0.065-0.089 0.129-0.178 0.189-0.269 0.089-0.132 0.173-0.27 0.255-0.409 1.385-2.362 1.528-5.369 0.102-7.935l-6.993-12.588-6.994 12.588c-1.426 2.566-1.282 5.573 0.103 7.935 0.082 0.139 0.166 0.276 0.255 0.409 0.062 0.091 0.126 0.18 0.191 0.269z" fill="#000000"></path>
	<path d="M89.555 116.73c0.090 0.122 0.181 0.241 0.276 0.356 0.076 0.093 0.156 0.184 0.237 0.274 0.091 0.1 0.185 0.2 0.28 0.295s0.195 0.189 0.296 0.28c0.090 0.081 0.18 0.16 0.274 0.237 0.115 0.095 0.235 0.187 0.356 0.276 0.089 0.065 0.178 0.129 0.269 0.189 0.132 0.089 0.269 0.173 0.41 0.256 0.091 0.053 0.183 0.108 0.277 0.157 0.136 0.074 0.274 0.139 0.412 0.203 0.109 0.051 0.216 0.101 0.326 0.147 0.119 0.049 0.239 0.091 0.359 0.133 0.132 0.047 0.264 0.094 0.398 0.134 0.102 0.031 0.205 0.054 0.308 0.081 0.15 0.038 0.299 0.076 0.451 0.106 0.1 0.019 0.198 0.032 0.298 0.047 0.154 0.024 0.307 0.048 0.461 0.062 0.114 0.011 0.228 0.014 0.341 0.019 0.138 0.007 0.276 0.016 0.415 0.016s0.277-0.009 0.415-0.016c0.114-0.005 0.228-0.009 0.341-0.019 0.155-0.015 0.308-0.038 0.461-0.062 0.1-0.015 0.199-0.028 0.298-0.047 0.152-0.029 0.302-0.069 0.451-0.107 0.103-0.026 0.206-0.050 0.308-0.080 0.134-0.040 0.266-0.088 0.398-0.134 0.12-0.043 0.241-0.085 0.359-0.133 0.11-0.045 0.218-0.096 0.326-0.147 0.138-0.064 0.276-0.13 0.412-0.203 0.094-0.050 0.186-0.104 0.277-0.157 0.139-0.082 0.277-0.167 0.41-0.256 0.091-0.061 0.18-0.124 0.269-0.189 0.122-0.090 0.241-0.181 0.356-0.276 0.093-0.076 0.184-0.156 0.274-0.237 0.101-0.091 0.2-0.185 0.296-0.28s0.189-0.194 0.28-0.295c0.081-0.090 0.16-0.181 0.237-0.274 0.095-0.115 0.187-0.235 0.276-0.356 0.065-0.089 0.129-0.178 0.189-0.269 0.089-0.132 0.173-0.27 0.255-0.409 1.385-2.362 1.528-5.369 0.102-7.935l-6.993-12.588-6.994 12.588c-1.426 2.566-1.282 5.573 0.103 7.935 0.082 0.139 0.166 0.276 0.255 0.409 0.062 0.091 0.126 0.18 0.19 0.269z" fill="#000000"></path>
	<path d="M28 88h72c15.464 0 28-12.536 28-28s-12.536-28-28-28c-0.076 0-0.15 0.005-0.226 0.005-1.987-18.002-17.243-32.005-35.774-32.005s-33.787 14.004-35.774 32.005c-0.076 0-0.15-0.005-0.226-0.005-15.464 0-28 12.536-28 28s12.536 28 28 28z" fill="#000000"></path>
</svg>
