<?xml version="1.0" encoding="utf-8"?>
<!-- Generated by IcoMoon.io -->
<!DOCTYPE svg PUBLIC "-//W3C//DTD SVG 1.1//EN" "http://www.w3.org/Graphics/SVG/1.1/DTD/svg11.dtd">
<svg version="1.1" xmlns="http://www.w3.org/2000/svg" xmlns:xlink="http://www.w3.org/1999/xlink" width="128" height="128" viewBox="0 0 128 128">
<g id="icomoon-ignore">
	<line stroke-width="1" x1="" y1="" x2="" y2="" stroke="#449FDB" opacity=""></line>
</g>
	<path d="M120.080 112h-0.080v-16h-112v16h-0.080c-4.374 0-7.92 3.546-7.92 7.92v0.16c0 4.374 3.546 7.92 7.92 7.92h112.16c4.374 0 7.92-3.546 7.92-7.92v-0.16c0-4.374-3.546-7.92-7.92-7.92z" fill="#000000"></path>
	<path d="M8 80h112v8h-112v-8z" fill="#000000"></path>
	<path d="M72 40h-16v-20c0-2.209-1.791-4-4-4s-4 1.791-4 4v20h-16v-20c0-2.209-1.791-4-4-4s-4 1.791-4 4v20h-8c-4.419 0-8 3.581-8 8v8h112v-8c0-4.419-3.581-8-8-8h-8v-20c0-2.209-1.791-4-4-4s-4 1.791-4 4v20h-16v-20c0-2.209-1.791-4-4-4s-4 1.791-4 4v20z" fill="#000000"></path>
	<path d="M8 64h112v8h-112v-8z" fill="#000000"></path>
	<path d="M32 4c0 2.209-1.791 4-4 4s-4-1.791-4-4c0-2.209 1.791-4 4-4s4 1.791 4 4z" fill="#000000"></path>
	<path d="M56 4c0 2.209-1.791 4-4 4s-4-1.791-4-4c0-2.209 1.791-4 4-4s4 1.791 4 4z" fill="#000000"></path>
	<path d="M80 4c0 2.209-1.791 4-4 4s-4-1.791-4-4c0-2.209 1.791-4 4-4s4 1.791 4 4z" fill="#000000"></path>
	<path d="M104 4c0 2.209-1.791 4-4 4s-4-1.791-4-4c0-2.209 1.791-4 4-4s4 1.791 4 4z" fill="#000000"></path>
</svg>
