<?xml version="1.0" encoding="utf-8"?>
<!-- Generated by IcoMoon.io -->
<!DOCTYPE svg PUBLIC "-//W3C//DTD SVG 1.1//EN" "http://www.w3.org/Graphics/SVG/1.1/DTD/svg11.dtd">
<svg version="1.1" xmlns="http://www.w3.org/2000/svg" xmlns:xlink="http://www.w3.org/1999/xlink" width="128" height="128" viewBox="0 0 128 128">
<g id="icomoon-ignore">
	<line stroke-width="1" x1="" y1="" x2="" y2="" stroke="#449FDB" opacity=""></line>
</g>
	<path d="M63.971-0.179c-35.299 0-64.006 28.717-64.006 63.984 0 35.285 28.707 64.013 64.006 64.013 35.252 0 64.029-28.727 64.029-64.013 0-35.267-28.776-63.984-64.029-63.984zM63.971 9.194c13.881 0 26.584 5.258 36.245 13.773-0.993 1.455-9.192 12.502-28.661 19.796-8.995-16.454-18.885-30.002-20.423-32.061 4.115-0.948 8.439-1.508 12.839-1.508zM40.671 14.445c1.475 1.945 11.262 15.461 20.309 31.606-25.54 6.738-48.078 6.675-50.541 6.651 3.549-16.989 14.995-31.061 30.231-38.257zM9.297 63.867c0-0.507 0-1.098 0-1.646 2.404 0.048 28.885 0.395 56.154-7.773 1.629 3.077 3.125 6.188 4.508 9.287-0.706 0.181-1.453 0.417-2.216 0.646-28.133 9.085-43.164 33.957-44.339 36.083-8.759-9.717-14.107-22.531-14.107-36.597zM63.971 118.579c-12.655 0-24.328-4.341-33.559-11.586 0.993-1.959 12.078-23.352 42.897-34.090 0.104-0.069 0.237-0.097 0.323-0.139 7.678 19.976 10.891 36.674 11.683 41.453-6.501 2.779-13.773 4.362-21.344 4.362zM94.484 109.231c-0.501-3.347-3.435-19.358-10.617-38.972 17.152-2.737 32.245 1.701 34.114 2.313-2.486 15.224-11.248 28.332-23.497 36.66zM80.557 61.596c-0.365-0.9-0.743-1.868-1.139-2.788-1.191-2.667-2.407-5.334-3.653-7.949 20.226-8.248 29.384-19.965 30.561-21.528 7.596 9.269 12.225 21.125 12.256 34.058-1.751-0.389-19.82-4.077-38.025-1.792z" fill="#000000"></path>
</svg>
