<?xml version="1.0" encoding="utf-8"?>
<!-- Generated by IcoMoon.io -->
<!DOCTYPE svg PUBLIC "-//W3C//DTD SVG 1.1//EN" "http://www.w3.org/Graphics/SVG/1.1/DTD/svg11.dtd">
<svg version="1.1" xmlns="http://www.w3.org/2000/svg" xmlns:xlink="http://www.w3.org/1999/xlink" width="128" height="128" viewBox="0 0 128 128">
<g id="icomoon-ignore">
	<line stroke-width="1" x1="" y1="" x2="" y2="" stroke="#449FDB" opacity=""></line>
</g>
	<path d="M73.389 46.259c14.592-8.76 22.455 3.587 14.974 17.547-7.494 14.015-14.376 23.15-17.936 23.15-3.497 0-6.271-9.399-10.373-25.723-4.199-16.907-4.192-47.385-21.781-43.923-16.622 3.281-38.397 29.309-38.397 29.309l5.173 6.813c0 0 10.733-8.468 14.3-4.255 3.622 4.255 17.317 55.31 21.85 64.75 3.956 8.273 14.933 19.189 26.933 11.402 12.11-7.828 52.070-41.962 59.23-82.339 7.147-40.307-48.176-31.867-53.974 3.269z" fill="#000000"></path>
</svg>
