<?xml version="1.0" encoding="utf-8"?>
<!-- Generated by IcoMoon.io -->
<!DOCTYPE svg PUBLIC "-//W3C//DTD SVG 1.1//EN" "http://www.w3.org/Graphics/SVG/1.1/DTD/svg11.dtd">
<svg version="1.1" xmlns="http://www.w3.org/2000/svg" xmlns:xlink="http://www.w3.org/1999/xlink" width="128" height="128" viewBox="0 0 128 128">
<g id="icomoon-ignore">
	<line stroke-width="1" x1="" y1="" x2="" y2="" stroke="#449FDB" opacity=""></line>
</g>
	<path d="M88 104h40v8h-40v-8z" fill="#000000"></path>
	<path d="M9.778 128h108.445c4.792 0 8.772-3.45 9.609-8h-119.831v-96h112v72h8v-86.222c0-5.4-4.378-9.778-9.778-9.778h-108.445c-5.4 0-9.778 4.378-9.778 9.778v108.445c0 5.4 4.378 9.778 9.778 9.778zM40 8h8v8h-8v-8zM24 8h8v8h-8v-8zM8 8h8v8h-8v-8z" fill="#000000"></path>
</svg>
