<?xml version="1.0" encoding="utf-8"?>
<!-- Generated by IcoMoon.io -->
<!DOCTYPE svg PUBLIC "-//W3C//DTD SVG 1.1//EN" "http://www.w3.org/Graphics/SVG/1.1/DTD/svg11.dtd">
<svg version="1.1" xmlns="http://www.w3.org/2000/svg" xmlns:xlink="http://www.w3.org/1999/xlink" width="128" height="128" viewBox="0 0 128 128">
<g id="icomoon-ignore">
	<line stroke-width="1" x1="" y1="" x2="" y2="" stroke="#449FDB" opacity=""></line>
</g>
	<path d="M72.024-0.139h-20.647c-0.834 6.59-2.329 12.055-4.532 16.282-2.099 4.31-5.068 7.953-8.558 11.040-3.622 3.044-9.226 5.38-14.286 7.035v18.144h17.185v44.895c0 5.882 0.591 10.373 1.863 13.445 1.237 3.087 3.364 5.993 6.603 8.717 3.185 2.753 7.001 4.867 11.555 6.355 4.435 1.46 7.925 2.182 13.793 2.182 5.144 0 9.956-0.486 14.355-1.557 4.414-1.001 9.211-2.516 14.717-5.089v-19.256c-6.437 4.199-10.317 5.033-16.81 5.033-3.559 0-6.89-0.835-9.643-2.516-2.204-1.279-4.136-3.462-4.907-5.534-0.764-2.113-0.688-6.437-0.688-13.834v-29.337h32.048v-23.971h-32.048v-32.035z" fill="#000000"></path>
</svg>
