<?xml version="1.0" encoding="utf-8"?>
<!-- Generated by IcoMoon.io -->
<!DOCTYPE svg PUBLIC "-//W3C//DTD SVG 1.1//EN" "http://www.w3.org/Graphics/SVG/1.1/DTD/svg11.dtd">
<svg version="1.1" xmlns="http://www.w3.org/2000/svg" xmlns:xlink="http://www.w3.org/1999/xlink" width="128" height="128" viewBox="0 0 128 128">
<g id="icomoon-ignore">
	<line stroke-width="1" x1="" y1="" x2="" y2="" stroke="#449FDB" opacity=""></line>
</g>
	<path d="M128 40c-3.559-4.725-11.165-8-20-8-6.974 0-13.172 2.045-17.228 5.228 3.183-4.056 5.228-10.254 5.228-17.229 0-8.835-3.275-16.441-8-20-4.725 3.559-8 11.165-8 20s3.275 16.441 8 20c0 0 0 0 0 0s0 0 0 0c3.559 4.725 11.165 8 20 8s16.44-3.275 20-8z" fill="#000000"></path>
	<path d="M11.833 127.004l73.233-44.808c9.436-5.082 11.307-17.823 3.728-25.401l-17.587-17.588c-7.579-7.579-20.32-5.709-25.401 3.728l-44.809 73.233c-3.763 6.987 3.849 14.599 10.836 10.837z" fill="#000000"></path>
</svg>
