<?xml version="1.0" encoding="utf-8"?>
<!-- Generated by IcoMoon.io -->
<!DOCTYPE svg PUBLIC "-//W3C//DTD SVG 1.1//EN" "http://www.w3.org/Graphics/SVG/1.1/DTD/svg11.dtd">
<svg version="1.1" xmlns="http://www.w3.org/2000/svg" xmlns:xlink="http://www.w3.org/1999/xlink" width="128" height="128" viewBox="0 0 128 128">
<g id="icomoon-ignore">
	<line stroke-width="1" x1="" y1="" x2="" y2="" stroke="#449FDB" opacity=""></line>
</g>
	<path d="M24 88l-16 16h112l-16-16v-32c0-16.401-9.875-30.489-24-36.662v-9.56c0-5.4-4.378-9.778-9.778-9.778h-12.444c-5.4 0-9.778 4.378-9.778 9.778v9.56c-14.125 6.173-24 20.261-24 36.662v32zM56 8h16v8.802c-2.585-0.524-5.26-0.802-8-0.802s-5.415 0.277-8 0.802v-8.802z" fill="#000000"></path>
	<path d="M64 128c8.837 0 16-7.163 16-16h-32c0 8.837 7.163 16 16 16z" fill="#000000"></path>
</svg>
