<?xml version="1.0" encoding="utf-8"?>
<!-- Generated by IcoMoon.io -->
<!DOCTYPE svg PUBLIC "-//W3C//DTD SVG 1.1//EN" "http://www.w3.org/Graphics/SVG/1.1/DTD/svg11.dtd">
<svg version="1.1" xmlns="http://www.w3.org/2000/svg" xmlns:xlink="http://www.w3.org/1999/xlink" width="128" height="128" viewBox="0 0 128 128">
<g id="icomoon-ignore">
	<line stroke-width="1" x1="" y1="" x2="" y2="" stroke="#449FDB" opacity=""></line>
</g>
	<path d="M64 52c0 6.627-5.373 12-12 12s-12-5.373-12-12c0-6.627 5.373-12 12-12s12 5.373 12 12z" fill="#000000"></path>
	<path d="M126.1 88h-6.093c-0.781 0-1.459-0.499-1.734-1.23-0.009-0.023-0.017-0.045-0.026-0.069-0.27-0.712-0.121-1.514 0.417-2.052l4.276-4.276c0.741-0.741 0.741-1.945 0-2.686l-8.627-8.627c-0.741-0.741-1.945-0.741-2.686 0l-4.276 4.276c-0.539 0.539-1.341 0.687-2.052 0.417-0.023-0.009-0.045-0.018-0.069-0.026-0.731-0.275-1.23-0.954-1.23-1.734v-6.093c0-1.049-0.851-1.9-1.9-1.9h-12.202c-1.047 0.001-1.898 0.852-1.898 1.9v6.168c0 0.766-0.461 1.454-1.168 1.749-0.008 0.004-0.016 0.006-0.023 0.010-0.711 0.298-1.529 0.139-2.074-0.406l-4.362-4.362c-0.217-0.217-0.475-0.363-0.748-0.453-0.039-0.013-0.077-0.024-0.117-0.035-0.156-0.041-0.316-0.069-0.477-0.069-0.001 0-0.001 0-0.002 0s-0.002 0-0.002 0c-0.161 0-0.32 0.028-0.477 0.069-0.040 0.010-0.077 0.021-0.117 0.035-0.273 0.090-0.531 0.236-0.748 0.453l-8.627 8.627c-0.741 0.741-0.741 1.945 0 2.686l4.362 4.362c0.545 0.545 0.703 1.364 0.406 2.074-0.004 0.008-0.006 0.016-0.010 0.023-0.296 0.707-0.984 1.169-1.75 1.169h-6.168c-1.049 0-1.9 0.851-1.9 1.9v12.202c0 1.049 0.851 1.9 1.9 1.9h6.093c0.781 0 1.459 0.499 1.734 1.23 0.009 0.023 0.017 0.045 0.026 0.069 0.27 0.712 0.121 1.514-0.417 2.052l-4.276 4.276c-0.741 0.741-0.741 1.945 0 2.686l8.627 8.627c0.741 0.741 1.945 0.741 2.686 0l4.276-4.276c0.539-0.539 1.341-0.687 2.052-0.417 0.023 0.009 0.045 0.018 0.069 0.026 0.731 0.275 1.23 0.954 1.23 1.734v6.093c0 1.049 0.851 1.899 1.9 1.899h12.202c1.049 0 1.9-0.851 1.9-1.9v-6.168c0-0.766 0.461-1.454 1.168-1.749 0.008-0.004 0.016-0.006 0.023-0.010 0.711-0.298 1.529-0.139 2.074 0.406l4.362 4.362c0.741 0.741 1.945 0.741 2.686 0l8.627-8.627c0.741-0.741 0.741-1.945 0-2.686l-4.362-4.362c-0.545-0.545-0.703-1.364-0.406-2.074 0.004-0.008 0.006-0.016 0.010-0.023 0.295-0.707 0.983-1.168 1.749-1.168h6.168c1.049 0 1.9-0.851 1.9-1.9v-12.202c-0.001-1.051-0.852-1.901-1.9-1.901zM79.625 68.606c-0.038-0.013-0.076-0.024-0.115-0.034 0.039 0.010 0.076 0.020 0.115 0.034zM78.549 68.573c-0.038 0.010-0.077 0.021-0.115 0.034 0.039-0.013 0.076-0.024 0.115-0.034zM96 112c-8.837 0-16-7.163-16-16s7.163-16 16-16 16 7.163 16 16-7.163 16-16 16z" fill="#000000"></path>
	<path d="M104 96c0 4.418-3.582 8-8 8s-8-3.582-8-8c0-4.418 3.582-8 8-8s8 3.582 8 8z" fill="#000000"></path>
	<path d="M2.849 64h13.253c1.154 0 2.189 0.699 2.628 1.765 0.005 0.011 0.010 0.023 0.014 0.035 0.439 1.063 0.2 2.284-0.614 3.098l-9.371 9.371c-1.112 1.112-1.112 2.916 0 4.028l12.942 12.942c1.112 1.112 2.916 1.112 4.029 0l9.371-9.371c0.814-0.814 2.035-1.053 3.098-0.614 0.011 0.004 0.023 0.010 0.035 0.014 1.067 0.439 1.765 1.475 1.765 2.629v13.253c0 1.573 1.276 2.849 2.849 2.849h13.355c-0.121-0.617-0.205-1.247-0.205-1.9v-12.202c0-3.594 1.925-6.746 4.797-8.481-0.222-0.9-0.304-1.824-0.271-2.745-2.689 0.859-5.553 1.327-8.526 1.327-15.464 0-28-12.536-28-28s12.536-28 28-28 28 12.536 28 28c0 2.971-0.467 5.833-1.325 8.52 0.118-0.005 0.235-0.018 0.354-0.018 0.817 0 1.62 0.098 2.392 0.289 1.736-2.868 4.887-4.791 8.478-4.791h12.202c0.651 0 1.282 0.084 1.9 0.205v-13.355c0-1.573-1.275-2.849-2.849-2.849h-13.253c-1.154 0-2.189-0.699-2.629-1.765-0.004-0.011-0.010-0.023-0.014-0.035-0.439-1.063-0.2-2.285 0.614-3.098l9.371-9.371c1.112-1.112 1.112-2.916 0-4.029l-12.942-12.942c-1.112-1.112-2.916-1.112-4.028 0l-9.373 9.371c-0.814 0.814-2.035 1.053-3.098 0.614-0.011-0.005-0.023-0.010-0.035-0.014-1.067-0.439-1.765-1.475-1.765-2.628v-13.253c0-1.573-1.276-2.849-2.849-2.849h-18.302c-1.573 0-2.849 1.276-2.849 2.849v13.253c0 1.154-0.699 2.189-1.765 2.628-0.011 0.005-0.023 0.010-0.035 0.014-1.063 0.439-2.285 0.2-3.098-0.614l-9.371-9.371c-1.112-1.112-2.916-1.112-4.029 0l-12.942 12.942c-1.112 1.112-1.112 2.916 0 4.029l9.371 9.371c0.814 0.814 1.053 2.035 0.614 3.098-0.005 0.011-0.010 0.023-0.014 0.035-0.439 1.067-1.475 1.765-2.628 1.765h-13.253c-1.573 0-2.849 1.276-2.849 2.849v18.302c0 1.573 1.276 2.849 2.849 2.849z" fill="#000000"></path>
</svg>
