<?xml version="1.0" encoding="utf-8"?>
<!-- Generated by IcoMoon.io -->
<!DOCTYPE svg PUBLIC "-//W3C//DTD SVG 1.1//EN" "http://www.w3.org/Graphics/SVG/1.1/DTD/svg11.dtd">
<svg version="1.1" xmlns="http://www.w3.org/2000/svg" xmlns:xlink="http://www.w3.org/1999/xlink" width="128" height="128" viewBox="0 0 128 128">
<g id="icomoon-ignore">
	<line stroke-width="1" x1="" y1="" x2="" y2="" stroke="#449FDB" opacity=""></line>
</g>
	<path d="M32.526 22.358c0-1.627 0.375-21.19 0.375-21.19l-24.901 24.485c0 0 17.179 0 20.605 0 3.379 0 3.921-1.655 3.921-3.295z" fill="#000000"></path>
	<path d="M102.325 14.294l-29.011-1.808c0 0-0.633-7.925-6.437-10.622-5.846-2.754-12.319-1.947-16.935-1.891-4.616 0.042-5.722 5.965-5.722 11.499 0 5.631 0.084 12.041 0.084 16.031 0 7.286-3.142 10.372-11.102 10.372h-16.435c-4.588-0.349-8.182 0.403-8.182 4.101 0 3.74 5.402 35.413 12.799 42.755 4.358 4.241 30.623 7.202 36.233 7.202 5.555 0 3.657-16.364 5.214-16.364 1.523 0 3.268 9.232 11.978 11.388 8.733 2.225 20.433 1.779 21.016 7.995 0.82 8.189 1.543 18.84-3.866 19.577l-12.18 0.515c-8.364-0.612-6.139-9.747-2.469-9.747 3.699 0 5.569-0.139 5.569-0.139l0.411-10.025c0 0-19.153-2.28-19.966 10.651-0.723 11.832 1.341 17.366 2.822 18.618 1.494 1.21 4.059 3.601 27.556 3.601 33.064 0 20.898-96.437 20.898-104.571 0.001-8.259-12.275-9.135-12.275-9.135zM101.1 66.211c-1.259 1.39-5.979-2.293-10.435-2.293-4.498 0-9.386 2.404-10.505 0.834-1.133-1.572 1.022-14.237 9.477-14.237 8.494-0.001 12.763 14.307 11.463 15.697z" fill="#000000"></path>
</svg>
