<?xml version="1.0" encoding="utf-8"?>
<!-- Generated by IcoMoon.io -->
<!DOCTYPE svg PUBLIC "-//W3C//DTD SVG 1.1//EN" "http://www.w3.org/Graphics/SVG/1.1/DTD/svg11.dtd">
<svg version="1.1" xmlns="http://www.w3.org/2000/svg" xmlns:xlink="http://www.w3.org/1999/xlink" width="128" height="128" viewBox="0 0 128 128">
<g id="icomoon-ignore">
	<line stroke-width="1" x1="" y1="" x2="" y2="" stroke="#449FDB" opacity=""></line>
</g>
	<path d="M64 36c1.057 0 2.080-0.427 2.827-1.173s1.173-1.778 1.173-2.827c0-1.049-0.427-2.080-1.173-2.827s-1.778-1.173-2.827-1.173c-1.050 0-2.080 0.427-2.828 1.173-0.747 0.738-1.172 1.769-1.172 2.827s0.426 2.089 1.172 2.827c0.748 0.747 1.778 1.173 2.828 1.173z" fill="#000000"></path>
	<path d="M25.778 0c-5.4 0-9.778 4.378-9.778 9.778v108.445c0 5.4 4.378 9.778 9.778 9.778h76.445c5.4 0 9.778-4.378 9.778-9.778v-108.445c0-5.4-4.378-9.778-9.778-9.778h-76.445zM64 16c8.837 0 16 7.163 16 16s-7.163 16-16 16-16-7.163-16-16 7.163-16 16-16zM64 120c-17.673 0-32-14.327-32-32s14.327-32 32-32 32 14.327 32 32-14.327 32-32 32z" fill="#000000"></path>
	<path d="M64 64c-13.255 0-24 10.745-24 24s10.745 24 24 24 24-10.745 24-24-10.745-24-24-24zM64 104c-8.837 0-16-7.163-16-16s7.163-16 16-16 16 7.163 16 16-7.163 16-16 16z" fill="#000000"></path>
</svg>
