<?xml version="1.0" encoding="utf-8"?>
<!-- Generated by IcoMoon.io -->
<!DOCTYPE svg PUBLIC "-//W3C//DTD SVG 1.1//EN" "http://www.w3.org/Graphics/SVG/1.1/DTD/svg11.dtd">
<svg version="1.1" xmlns="http://www.w3.org/2000/svg" xmlns:xlink="http://www.w3.org/1999/xlink" width="128" height="128" viewBox="0 0 128 128">
<g id="icomoon-ignore">
	<line stroke-width="1" x1="" y1="" x2="" y2="" stroke="#449FDB" opacity=""></line>
</g>
	<path d="M9.778 64h108.445c5.4 0 9.778-4.378 9.778-9.778v-12.444c0-5.4-4.378-9.778-9.778-9.778h-24.722c2.042-1.342 4.020-2.894 5.813-4.686 3.022-3.022 4.686-7.040 4.686-11.314s-1.665-8.291-4.686-11.314c-3.021-3.022-7.039-4.686-11.313-4.686s-8.291 1.664-11.314 4.686c-9.523 9.523-12.287 24.307-12.572 25.961l-0.115 0.67-0.115-0.67c-0.285-1.654-3.049-16.438-12.572-25.961-3.022-3.022-7.040-4.686-11.314-4.686s-8.291 1.664-11.314 4.686c-3.021 3.022-4.686 7.040-4.686 11.314s1.665 8.291 4.686 11.314c1.792 1.792 3.771 3.344 5.813 4.686h-24.721c-5.4 0-9.778 4.378-9.778 9.778v12.444c0 5.4 4.378 9.778 9.778 9.778zM82.343 10.343c1.563-1.562 3.61-2.343 5.657-2.343s4.094 0.781 5.657 2.343c3.124 3.124 3.124 8.189 0 11.314-8 8-21.657 10.343-21.657 10.343s2.343-13.657 10.343-21.657zM34.343 21.657c-3.125-3.125-3.125-8.189 0-11.314 1.563-1.562 3.61-2.343 5.657-2.343s4.094 0.781 5.657 2.343c8 8 10.343 21.657 10.343 21.657s-13.657-2.343-21.657-10.343z" fill="#000000"></path>
	<path d="M8 118.222c0 5.4 4.378 9.778 9.778 9.778h92.445c5.4 0 9.778-4.378 9.778-9.778v-46.222h-112v46.222z" fill="#000000"></path>
</svg>
