<?xml version="1.0" encoding="utf-8"?>
<!-- Generated by IcoMoon.io -->
<!DOCTYPE svg PUBLIC "-//W3C//DTD SVG 1.1//EN" "http://www.w3.org/Graphics/SVG/1.1/DTD/svg11.dtd">
<svg version="1.1" xmlns="http://www.w3.org/2000/svg" xmlns:xlink="http://www.w3.org/1999/xlink" width="128" height="128" viewBox="0 0 128 128">
<g id="icomoon-ignore">
	<line stroke-width="1" x1="" y1="" x2="" y2="" stroke="#449FDB" opacity=""></line>
</g>
	<path d="M83.533-0.034c-0.48-0.236-1.077-0.056-1.334 0.431l-5.148 9.899c-4.032-1.585-8.419-2.461-12.994-2.461-4.588 0-9.020 0.877-12.996 2.461l-5.187-9.9c-0.216-0.487-0.869-0.667-1.363-0.431-0.417 0.264-0.619 0.862-0.382 1.376l5.060 9.719c-11.314 5.103-19.532 15.951-21.012 28.843h71.716c-1.449-12.892-9.694-23.741-21.034-28.843l5.124-9.718c0.18-0.514 0.014-1.112-0.451-1.376zM48.022 33.686c-3.184 0-5.805-2.558-5.805-5.798 0-3.226 2.621-5.784 5.805-5.784 3.156 0 5.812 2.558 5.812 5.784 0 3.24-2.655 5.798-5.812 5.798zM80.078 22.104c3.17 0 5.77 2.558 5.77 5.784 0 3.24-2.6 5.798-5.77 5.798-3.181 0-5.864-2.558-5.864-5.798 0-3.225 2.683-5.784 5.864-5.784z" fill="#000000"></path>
	<path d="M112.109 39.905c-4.401 0-8.043 3.615-8.043 8.009v32.069c0 4.366 3.643 7.966 8.043 7.966 4.408 0 7.957-3.601 7.957-7.966v-32.069c0-4.394-3.549-8.009-7.957-8.009z" fill="#000000"></path>
	<path d="M28.025 91.968c0 6.65 5.367 12.017 11.974 12.017h4.046v16.049c0 4.394 3.58 7.966 7.931 7.966 4.47 0 8.075-3.573 8.075-7.966v-16.049h7.967v16.049c0 4.394 3.629 7.966 8.064 7.966 4.349 0 7.978-3.573 7.978-7.966v-16.049h3.997c6.646 0 12.017-5.367 12.017-12.017v-44.054h-72.050v44.054z" fill="#000000"></path>
	<path d="M15.953 39.905c-4.408 0-7.953 3.615-7.953 8.009v32.069c0 4.366 3.545 7.966 7.953 7.966 4.438 0 8.047-3.601 8.047-7.966v-32.069c0-4.394-3.609-8.009-8.047-8.009z" fill="#000000"></path>
</svg>
