<?xml version="1.0" encoding="utf-8"?>
<!-- Generated by IcoMoon.io -->
<!DOCTYPE svg PUBLIC "-//W3C//DTD SVG 1.1//EN" "http://www.w3.org/Graphics/SVG/1.1/DTD/svg11.dtd">
<svg version="1.1" xmlns="http://www.w3.org/2000/svg" xmlns:xlink="http://www.w3.org/1999/xlink" width="128" height="128" viewBox="0 0 128 128">
<g id="icomoon-ignore">
	<line stroke-width="1" x1="" y1="" x2="" y2="" stroke="#449FDB" opacity=""></line>
</g>
	<path d="M3.96 48h40.040c11.045 0 20-8.955 20-20s-8.955-20-20-20c-2.209 0-4 1.791-4 4s1.791 4 4 4c6.627 0 12 5.372 12 12s-5.373 12-12 12h-40.040c-2.187 0-3.96 1.773-3.96 3.96v0.080c0 2.187 1.773 3.96 3.96 3.96z" fill="#000000"></path>
	<path d="M3.96 80h72.040c11.045 0 20-8.955 20-20s-8.955-20-20-20c-2.209 0-4 1.791-4 4s1.791 4 4 4c6.627 0 12 5.373 12 12s-5.373 12-12 12h-72.040c-2.187 0-3.96 1.773-3.96 3.96v0.080c0 2.187 1.773 3.96 3.96 3.96z" fill="#000000"></path>
	<path d="M108 72c-2.209 0-4 1.791-4 4s1.791 4 4 4c6.627 0 12 5.373 12 12s-5.373 12-12 12h-104.040c-2.187 0-3.96 1.773-3.96 3.96v0.080c0 2.187 1.773 3.96 3.96 3.96h104.040c11.045 0 20-8.955 20-20s-8.955-20-20-20z" fill="#000000"></path>
</svg>
