<?xml version="1.0" encoding="utf-8"?>
<!-- Generated by IcoMoon.io -->
<!DOCTYPE svg PUBLIC "-//W3C//DTD SVG 1.1//EN" "http://www.w3.org/Graphics/SVG/1.1/DTD/svg11.dtd">
<svg version="1.1" xmlns="http://www.w3.org/2000/svg" xmlns:xlink="http://www.w3.org/1999/xlink" width="128" height="128" viewBox="0 0 128 128">
<g id="icomoon-ignore">
	<line stroke-width="1" x1="" y1="" x2="" y2="" stroke="#449FDB" opacity=""></line>
</g>
	<path d="M108.232-0.139h-9.872v19.688h-19.625v9.851h19.625v19.737h9.872v-19.737h19.768v-9.851h-19.768z" fill="#000000"></path>
	<path d="M73.535 81.421c-1.285-1.821-2.808-3.504-4.457-5.061-1.654-1.557-3.298-3.004-4.891-4.269-1.695-1.307-3.159-2.544-4.546-3.712-1.349-1.168-2.475-2.392-3.347-3.713-0.841-1.279-1.23-2.572-1.23-3.907 0-1.864 0.542-3.573 1.804-5.187 1.144-1.64 2.551-3.212 4.292-4.734 1.669-1.508 3.407-3.135 5.072-4.978 1.696-1.745 3.139-4.165 4.297-7.098 1.147-2.933 1.749-6.326 1.749-10.116 0-4.54-1.011-8.864-2.987-13.035-1.985-4.171-4.814-7.348-8.484-9.664h10.438l10.393-6.090h-33.697c-4.724 0-9.563 0.486-14.38 1.543-7.167 1.585-13.171 5.199-17.978 10.845-4.883 5.686-7.313 12.132-7.313 19.354 0 7.571 2.725 13.862 8.161 18.902 5.433 5.040 12.055 7.556 19.667 7.556 1.578 0 3.316-0.111 5.381-0.382-0.063 0.397-0.233 0.967-0.522 1.648-0.261 0.681-0.427 1.265-0.58 1.682-0.219 0.417-0.307 0.877-0.404 1.488-0.146 0.571-0.198 1.21-0.198 1.793 0 3.393 1.641 7.189 4.971 11.484-3.925 0.105-7.731 0.46-11.551 1.035-3.816 0.598-7.835 1.516-11.979 2.76-4.143 1.279-7.832 3.101-11.13 5.485-3.257 2.399-5.801 5.193-7.4 8.516-1.909 3.803-2.837 7.272-2.837 10.387 0 3.427 0.738 6.528 2.326 9.371 1.516 2.795 3.511 5.089 5.864 6.834 2.461 1.772 5.252 3.274 8.391 4.456 3.111 1.21 6.259 2.085 9.361 2.586 3.131 0.518 6.255 0.797 9.221 0.797 13.754 0 24.586-3.393 32.323-10.094 7.233-6.284 10.786-13.529 10.786-21.704 0-2.962-0.424-5.687-1.259-8.245-0.785-2.503-1.911-4.692-3.329-6.535zM43.937 53.447c-2.669 0-5.193-0.702-7.532-1.989-2.364-1.363-4.334-3.087-6.031-5.228-1.654-2.099-3.061-4.546-4.299-7.202-1.21-2.655-2.144-5.34-2.739-8.009-0.553-2.683-0.866-5.186-0.866-7.613 0-4.915 1.283-9.156 3.925-12.716 2.662-3.517 6.298-5.324 11.088-5.324 3.416 0 6.479 1.071 9.176 3.157 2.757 2.127 4.971 4.796 6.501 8.043 1.579 3.22 2.771 6.57 3.639 10.053 0.869 3.469 1.307 6.709 1.307 9.809 0 5.144-1.154 9.246-3.41 12.36-2.227 3.115-5.789 4.659-10.757 4.659zM65.206 111.26c-1.443 2.419-3.316 4.31-5.788 5.673-2.384 1.363-4.992 2.336-7.765 3.017-2.701 0.626-5.621 0.946-8.586 0.946-3.291 0-6.601-0.403-9.792-1.167-3.274-0.751-6.353-1.947-9.301-3.491-2.951-1.585-5.291-3.713-7.136-6.479-1.894-2.74-2.698-5.84-2.698-9.316 0-3.087 0.611-5.84 2.043-8.3 1.39-2.365 3.139-4.297 5.245-5.757 2.245-1.419 4.734-2.629 7.627-3.518 2.813-0.946 5.638-1.557 8.28-1.933 2.648-0.347 5.38-0.541 8.175-0.541 1.7 0 3.024 0.055 3.823 0.18 0.351 0.166 1.106 0.737 2.318 1.578 1.279 0.876 2.148 1.481 2.607 1.814 0.428 0.264 1.193 0.862 2.374 1.71 1.115 0.903 1.937 1.543 2.485 2.002 0.48 0.445 1.172 1.070 2.103 1.961 0.886 0.876 1.582 1.641 2.037 2.28 0.459 0.612 0.981 1.404 1.605 2.336 0.629 0.924 1.109 1.807 1.366 2.669 0.247 0.849 0.455 1.739 0.692 2.753 0.267 1.002 0.382 2.030 0.382 3.115 0.001 3.253-0.722 6.062-2.099 8.468z" fill="#000000"></path>
</svg>
