<?xml version="1.0" encoding="utf-8"?>
<!-- Generated by IcoMoon.io -->
<!DOCTYPE svg PUBLIC "-//W3C//DTD SVG 1.1//EN" "http://www.w3.org/Graphics/SVG/1.1/DTD/svg11.dtd">
<svg version="1.1" xmlns="http://www.w3.org/2000/svg" xmlns:xlink="http://www.w3.org/1999/xlink" width="128" height="128" viewBox="0 0 128 128">
<g id="icomoon-ignore">
	<line stroke-width="1" x1="" y1="" x2="" y2="" stroke="#449FDB" opacity=""></line>
</g>
	<path d="M96 72c0 4.419 3.581 8 8 8h24v-16h-24c-4.419 0-8 3.581-8 8zM108 72c0 1.049-0.427 2.080-1.173 2.827s-1.778 1.173-2.827 1.173c-1.050 0-2.080-0.427-2.828-1.173s-1.172-1.778-1.172-2.827 0.426-2.080 1.172-2.827c0.738-0.747 1.769-1.173 2.828-1.173 1.057 0 2.080 0.427 2.827 1.173s1.173 1.778 1.173 2.827z" fill="#000000"></path>
	<path d="M118.222 24h-106.262c-2.187 0-3.96-1.773-3.96-3.96v-0.080c0-2.187 1.773-3.96 3.96-3.96l99.96-0.080c0-4.374-3.546-7.92-7.92-7.92h-94.222c-5.4 0-9.778 4.378-9.778 9.778v92.445c0 5.4 4.378 9.778 9.778 9.778h108.445c5.4 0 9.778-4.378 9.778-9.778v-22.222h-23.616c-8.675 0-16.065-6.746-16.373-15.417-0.325-9.102 6.959-16.583 15.989-16.583h24v-22.222c0-5.4-4.378-9.778-9.778-9.778z" fill="#000000"></path>
</svg>
