<?xml version="1.0" encoding="utf-8"?>
<!-- Generated by IcoMoon.io -->
<!DOCTYPE svg PUBLIC "-//W3C//DTD SVG 1.1//EN" "http://www.w3.org/Graphics/SVG/1.1/DTD/svg11.dtd">
<svg version="1.1" xmlns="http://www.w3.org/2000/svg" xmlns:xlink="http://www.w3.org/1999/xlink" width="128" height="128" viewBox="0 0 128 128">
<g id="icomoon-ignore">
	<line stroke-width="1" x1="" y1="" x2="" y2="" stroke="#449FDB" opacity=""></line>
</g>
	<path d="M118.222 24h-6.222v-16h-96v16h-6.222c-5.4 0-9.778 4.378-9.778 9.778v44.445c0 5.4 4.378 9.778 9.778 9.778h6.222v32h96v-32h6.222c5.4 0 9.778-4.378 9.778-9.778v-44.444c0-5.4-4.378-9.778-9.778-9.778zM24 16h80v8h-80v-8zM104 88v24h-80v-56h80v32zM112 40h-16v-8h16v8z" fill="#000000"></path>
	<path d="M32 96h64v8h-64v-8z" fill="#000000"></path>
	<path d="M32 80h64v8h-64v-8z" fill="#000000"></path>
	<path d="M32 64h64v8h-64v-8z" fill="#000000"></path>
</svg>
