<?xml version="1.0" encoding="utf-8"?>
<!-- Generated by IcoMoon.io -->
<!DOCTYPE svg PUBLIC "-//W3C//DTD SVG 1.1//EN" "http://www.w3.org/Graphics/SVG/1.1/DTD/svg11.dtd">
<svg version="1.1" xmlns="http://www.w3.org/2000/svg" xmlns:xlink="http://www.w3.org/1999/xlink" width="128" height="128" viewBox="0 0 128 128">
<g id="icomoon-ignore">
	<line stroke-width="1" x1="" y1="" x2="" y2="" stroke="#449FDB" opacity=""></line>
</g>
	<path d="M88 104h40v8h-40v-8z" fill="#000000"></path>
	<path d="M96 16v24h24z" fill="#000000"></path>
	<path d="M24 25.778v92.445c0 5.4 4.378 9.778 9.778 9.778h76.445c4.792 0 8.772-3.45 9.609-8h-39.831v-24h40v-48h-22.222c-5.4 0-9.778-4.378-9.778-9.778v-22.222h-54.222c-5.4 0-9.778 4.378-9.778 9.778z" fill="#000000"></path>
	<path d="M80 0v8h8z" fill="#000000"></path>
	<path d="M8 9.778v92.445c0 4.792 3.45 8.772 8 9.609v-86.053c0-9.803 7.975-17.778 17.778-17.778h38.222v-8h-54.222c-5.4 0-9.778 4.378-9.778 9.778z" fill="#000000"></path>
</svg>
