<?xml version="1.0" encoding="utf-8"?>
<!-- Generated by IcoMoon.io -->
<!DOCTYPE svg PUBLIC "-//W3C//DTD SVG 1.1//EN" "http://www.w3.org/Graphics/SVG/1.1/DTD/svg11.dtd">
<svg version="1.1" xmlns="http://www.w3.org/2000/svg" xmlns:xlink="http://www.w3.org/1999/xlink" width="128" height="128" viewBox="0 0 128 128">
<g id="icomoon-ignore">
	<line stroke-width="1" x1="" y1="" x2="" y2="" stroke="#449FDB" opacity=""></line>
</g>
	<path d="M8 118.222c0 5.4 4.378 9.778 9.778 9.778h84.445c5.4 0 9.778-4.378 9.778-9.778v-78.222h-104v78.222zM88 56h8v56h-8v-56zM72 56h8v56h-8v-56zM56 56h8v56h-8v-56zM40 56h8v56h-8v-56zM24 56h8v56h-8v-56z" fill="#000000"></path>
	<path d="M112 32h8v-6.222c0-5.4-4.378-9.778-9.778-9.778h-30.222v-6.222c0-5.4-4.378-9.778-9.778-9.778h-20.445c-5.4 0-9.778 4.378-9.778 9.778v6.222h-30.222c-5.4 0-9.778 4.378-9.778 9.778v6.222h112zM48 8h24v8h-24v-8z" fill="#000000"></path>
</svg>
