<?xml version="1.0" encoding="utf-8"?>
<!-- Generated by IcoMoon.io -->
<!DOCTYPE svg PUBLIC "-//W3C//DTD SVG 1.1//EN" "http://www.w3.org/Graphics/SVG/1.1/DTD/svg11.dtd">
<svg version="1.1" xmlns="http://www.w3.org/2000/svg" xmlns:xlink="http://www.w3.org/1999/xlink" width="128" height="128" viewBox="0 0 128 128">
<g id="icomoon-ignore">
	<line stroke-width="1" x1="" y1="" x2="" y2="" stroke="#449FDB" opacity=""></line>
</g>
	<path d="M109.445 103.702c-0.636-0.004-1.293 0.146-1.901 0.431-0.692 0.278-1.394 0.595-2.052 0.876l-0.977 0.403-1.266 0.504v0.018c-13.748 5.575-28.186 8.843-41.552 9.128-0.493 0.017-0.983 0.017-1.466 0.017-21.012 0.011-38.163-9.739-55.469-19.34-0.605-0.32-1.213-0.483-1.822-0.483-0.781 0-1.578 0.288-2.158 0.834s-0.924 1.342-0.921 2.148c-0.004 1.050 0.563 2.009 1.349 2.635 16.24 14.095 34.036 27.195 57.968 27.206 0.466 0 0.94-0.011 1.419-0.020 15.225-0.345 32.448-5.482 45.806-13.879l0.076-0.052c1.751-1.042 3.503-2.235 5.151-3.552 1.028-0.764 1.734-1.95 1.724-3.187-0.030-2.198-1.9-3.686-3.909-3.686z" fill="#000000"></path>
	<path d="M127.983 95.912c-0.050-1.338-0.338-2.353-0.893-3.197l-0.056-0.080-0.066-0.084c-0.567-0.619-1.109-0.853-1.701-1.113-1.752-0.674-4.303-1.032-7.379-1.043-2.207 0-4.647 0.209-7.094 0.744l-0.004-0.163-2.469 0.82-0.041 0.020-1.394 0.453 0.004 0.062c-1.634 0.677-3.122 1.523-4.501 2.52-0.855 0.646-1.572 1.495-1.612 2.798-0.018 0.706 0.337 1.523 0.942 2.005 0.591 0.484 1.286 0.644 1.894 0.644 0.146 0 0.282-0.004 0.403-0.025l0.118-0.010 0.093-0.018c1.206-0.253 2.963-0.424 5.013-0.716 1.763-0.191 3.633-0.337 5.256-0.337 1.15-0.007 2.176 0.073 2.882 0.229 0.355 0.069 0.622 0.163 0.772 0.237 0.045 0.020 0.084 0.042 0.105 0.059 0.031 0.098 0.076 0.347 0.069 0.706 0.018 1.356-0.566 3.873-1.345 6.323-0.772 2.458-1.71 4.922-2.33 6.559-0.146 0.379-0.24 0.788-0.24 1.241-0.013 0.66 0.254 1.457 0.828 1.985 0.556 0.531 1.272 0.74 1.881 0.74h0.024c0.907-0.010 1.675-0.371 2.342-0.89 6.257-5.627 8.429-14.602 8.517-19.656l-0.017-0.806v-0.008z" fill="#000000"></path>
	<path d="M70.789 35.632c-3.677 0.274-7.918 0.556-12.163 1.115-6.504 0.859-13.008 1.981-18.378 4.532-10.459 4.241-17.533 13.285-17.533 26.574 0 16.692 10.744 25.17 24.322 25.17 4.522 0 8.203-0.57 11.589-1.412 5.377-1.7 9.896-4.807 15.273-10.473 3.108 4.248 3.959 6.233 9.33 10.752 1.415 0.563 2.83 0.563 3.956-0.278 3.399-2.833 9.34-7.924 12.444-10.748 1.419-1.133 1.133-2.834 0.278-4.235-3.1-3.966-6.215-7.358-6.215-14.998v-25.445c0-10.748 0.848-20.647-7.067-27.988-6.499-5.933-16.684-8.2-24.603-8.2h-3.395c-14.419 0.838-29.688 7.063-33.081 24.881-0.567 2.267 1.133 3.107 2.263 3.389l15.833 1.978c1.7-0.281 2.544-1.7 2.83-3.101 1.411-6.226 6.502-9.34 12.155-9.907h1.137c3.392 0 7.066 1.418 9.044 4.248 2.262 3.392 1.981 7.918 1.981 11.877v2.266zM67.682 69.273c-1.981 3.948-5.377 6.497-9.055 7.358-0.563 0-1.408 0.282-2.263 0.282-6.215 0-9.892-4.814-9.892-11.881 0-9.052 5.371-13.293 12.156-15.27 3.677-0.848 7.918-1.133 12.163-1.133v3.395c0 6.501 0.281 11.589-3.108 17.248z" fill="#000000"></path>
</svg>
