<?xml version="1.0" encoding="utf-8"?>
<!-- Generated by IcoMoon.io -->
<!DOCTYPE svg PUBLIC "-//W3C//DTD SVG 1.1//EN" "http://www.w3.org/Graphics/SVG/1.1/DTD/svg11.dtd">
<svg version="1.1" xmlns="http://www.w3.org/2000/svg" xmlns:xlink="http://www.w3.org/1999/xlink" width="128" height="128" viewBox="0 0 128 128">
<g id="icomoon-ignore">
	<line stroke-width="1" x1="" y1="" x2="" y2="" stroke="#449FDB" opacity=""></line>
</g>
	<path d="M79.023 20.308c4.467-5.426 7.47-12.948 6.649-20.446-6.392 0.209-14.209 4.255-18.833 9.681-4.157 4.838-7.832 12.489-6.816 19.834 7.185 0.555 14.557-3.643 19-9.069z" fill="#000000"></path>
	<path d="M95.18 67.987c-0.173-16.232 13.24-24.078 13.872-24.44-7.542-11.002-19.306-12.531-23.483-12.711-9.972-1.001-19.473 5.899-24.509 5.899-5.102 0-12.934-5.76-21.211-5.593-10.861 0.166-20.869 6.329-26.48 16.079-11.311 19.571-2.882 48.653 8.078 64.577 5.384 7.749 11.86 16.54 20.292 16.191 8.068-0.277 11.144-5.259 20.963-5.259 9.827 0 12.608 5.259 21.197 5.12 8.673-0.139 14.262-7.915 19.584-15.746 6.166-9.013 8.749-17.801 8.875-18.207-0.18-0.097-16.984-6.576-17.178-25.91z" fill="#000000"></path>
</svg>
