<?xml version="1.0" encoding="utf-8"?>
<!-- Generated by IcoMoon.io -->
<!DOCTYPE svg PUBLIC "-//W3C//DTD SVG 1.1//EN" "http://www.w3.org/Graphics/SVG/1.1/DTD/svg11.dtd">
<svg version="1.1" xmlns="http://www.w3.org/2000/svg" xmlns:xlink="http://www.w3.org/1999/xlink" width="128" height="128" viewBox="0 0 128 128">
<g id="icomoon-ignore">
	<line stroke-width="1" x1="" y1="" x2="" y2="" stroke="#449FDB" opacity=""></line>
</g>
	<path d="M91.428 24c-8.764 0-16.798 3.091-23.094 8.232 2.173-12.878 14.362-25.253 14.494-25.387 1.563-1.562 1.563-4.094 0-5.657-1.561-1.562-4.095-1.562-5.656 0-0.657 0.657-15.123 15.301-16.976 31.486-6.373-5.405-14.613-8.675-23.625-8.675-20.198 0-36.572 16.373-36.572 36.572 0 5.373 1.175 10.466 3.257 15.061l14.745 35.809c1.3 3.18 3.226 6.166 5.808 8.749 10.414 10.414 27.299 10.414 37.712 0 0.907-0.907 1.729-1.864 2.477-2.861 0.749 0.996 1.571 1.954 2.477 2.861 10.414 10.414 27.299 10.414 37.712 0 2.583-2.583 4.508-5.568 5.808-8.749l0.002 0.004 14.743-35.813c2.084-4.595 3.259-9.688 3.259-15.060 0-20.198-16.373-36.572-36.572-36.572zM64 85.337c-0.078-0.105-0.161-0.207-0.241-0.311 0.082-0.091 0.16-0.186 0.241-0.278v0.589z" fill="#000000"></path>
</svg>
