<?xml version="1.0" encoding="utf-8"?>
<!-- Generated by IcoMoon.io -->
<!DOCTYPE svg PUBLIC "-//W3C//DTD SVG 1.1//EN" "http://www.w3.org/Graphics/SVG/1.1/DTD/svg11.dtd">
<svg version="1.1" xmlns="http://www.w3.org/2000/svg" xmlns:xlink="http://www.w3.org/1999/xlink" width="128" height="128" viewBox="0 0 128 128">
<g id="icomoon-ignore">
	<line stroke-width="1" x1="" y1="" x2="" y2="" stroke="#449FDB" opacity=""></line>
</g>
	<path d="M44.040 24c2.187 0 3.96-1.773 3.96-3.96v-16.080c0-2.187-1.773-3.96-3.96-3.96h-0.080c-2.187 0-3.96 1.773-3.96 3.96v16.080c0 2.187 1.773 3.96 3.96 3.96h0.080z" fill="#000000"></path>
	<path d="M84.040 24c2.187 0 3.96-1.773 3.96-3.96v-16.080c0-2.187-1.773-3.96-3.96-3.96h-0.080c-2.187 0-3.96 1.773-3.96 3.96v16.080c0 2.187 1.773 3.96 3.96 3.96h0.080z" fill="#000000"></path>
	<path d="M118.222 16h-22.222v4.040c0 6.595-5.365 11.96-11.96 11.96h-0.080c-6.595 0-11.96-5.365-11.96-11.96v-4.040h-16v4.040c0 6.595-5.365 11.96-11.96 11.96h-0.080c-6.595 0-11.96-5.365-11.96-11.96v-4.040h-22.222c-5.4 0-9.778 4.378-9.778 9.778v92.445c0 5.4 4.378 9.778 9.778 9.778h108.445c5.4 0 9.778-4.378 9.778-9.778v-92.445c0-5.4-4.378-9.778-9.778-9.778zM120 120h-112v-80h112v80z" fill="#000000"></path>
</svg>
