<?xml version="1.0" encoding="utf-8"?>
<!-- Generated by IcoMoon.io -->
<!DOCTYPE svg PUBLIC "-//W3C//DTD SVG 1.1//EN" "http://www.w3.org/Graphics/SVG/1.1/DTD/svg11.dtd">
<svg version="1.1" xmlns="http://www.w3.org/2000/svg" xmlns:xlink="http://www.w3.org/1999/xlink" width="128" height="128" viewBox="0 0 128 128">
<g id="icomoon-ignore">
	<line stroke-width="1" x1="" y1="" x2="" y2="" stroke="#449FDB" opacity=""></line>
</g>
	<path d="M32 32v63.368c0 17.943 14.684 32.969 32.624 32.627 17.385-0.333 31.376-14.53 31.376-31.995v-71.501c0-13.077-10.253-24.131-23.325-24.49-13.563-0.371-24.675 10.512-24.675 23.991v71.581c0 8.968 7.339 16.584 16.306 16.417 8.695-0.163 15.694-7.264 15.694-15.998v-64h-8v64c0 4.595-3.873 8.284-8.532 7.982-4.252-0.275-7.468-3.996-7.468-8.257v-71.307c0-8.968 7.339-16.584 16.306-16.417 8.695 0.164 15.694 7.264 15.694 15.998v71.5c0 13.077-10.253 24.132-23.325 24.49-13.563 0.373-24.675-10.511-24.675-23.99v-64h-8z" fill="#000000"></path>
</svg>
