<?xml version="1.0" encoding="utf-8"?>
<!-- Generated by IcoMoon.io -->
<!DOCTYPE svg PUBLIC "-//W3C//DTD SVG 1.1//EN" "http://www.w3.org/Graphics/SVG/1.1/DTD/svg11.dtd">
<svg version="1.1" xmlns="http://www.w3.org/2000/svg" xmlns:xlink="http://www.w3.org/1999/xlink" width="128" height="128" viewBox="0 0 128 128">
<g id="icomoon-ignore">
	<line stroke-width="1" x1="" y1="" x2="" y2="" stroke="#449FDB" opacity=""></line>
</g>
	<path d="M118.222 0h-108.445c-5.4 0-9.778 4.378-9.778 9.778v108.445c0 5.4 4.378 9.778 9.778 9.778h108.445c5.4 0 9.778-4.378 9.778-9.778v-108.445c0-5.4-4.378-9.778-9.778-9.778zM120 88l-32-32-32 32-16-16-32 32v-96h112v80z" fill="#000000"></path>
	<path d="M56 40c0 8.837-7.163 16-16 16s-16-7.163-16-16c0-8.837 7.163-16 16-16s16 7.163 16 16z" fill="#000000"></path>
</svg>
