<?xml version="1.0" encoding="utf-8"?>
<!-- Generated by IcoMoon.io -->
<!DOCTYPE svg PUBLIC "-//W3C//DTD SVG 1.1//EN" "http://www.w3.org/Graphics/SVG/1.1/DTD/svg11.dtd">
<svg version="1.1" xmlns="http://www.w3.org/2000/svg" xmlns:xlink="http://www.w3.org/1999/xlink" width="128" height="128" viewBox="0 0 128 128">
<g id="icomoon-ignore">
	<line stroke-width="1" x1="" y1="" x2="" y2="" stroke="#449FDB" opacity=""></line>
</g>
	<path d="M40.080 0h-16c-8.836 0-16 7.163-16 16v95.92c0 8.837 7.163 16 16 16h16c4.374 0 7.92-3.546 7.92-7.92v-24.080c0-4.374-3.546-7.92-7.92-7.92h-16v-48h16c4.374 0 7.92-3.546 7.92-7.92v-24.16c0-4.374-3.546-7.92-7.92-7.92z" fill="#000000"></path>
	<path d="M56 104c22.091 0 40-17.909 40-40s-17.909-40-40-40v8c17.673 0 32 14.327 32 32s-14.327 32-32 32v8z" fill="#000000"></path>
	<path d="M56 72v8c8.837 0 16-7.163 16-16s-7.163-16-16-16v8c4.419 0 8 3.581 8 8s-3.581 8-8 8z" fill="#000000"></path>
	<path d="M56 128c35.347 0 64-28.653 64-64s-28.653-64-64-64v8c30.928 0 56 25.072 56 56s-25.072 56-56 56v8z" fill="#000000"></path>
</svg>
