<?xml version="1.0" encoding="utf-8"?>
<!-- Generated by IcoMoon.io -->
<!DOCTYPE svg PUBLIC "-//W3C//DTD SVG 1.1//EN" "http://www.w3.org/Graphics/SVG/1.1/DTD/svg11.dtd">
<svg version="1.1" xmlns="http://www.w3.org/2000/svg" xmlns:xlink="http://www.w3.org/1999/xlink" width="128" height="128" viewBox="0 0 128 128">
<g id="icomoon-ignore">
	<line stroke-width="1" x1="" y1="" x2="" y2="" stroke="#449FDB" opacity=""></line>
</g>
	<path d="M64 0c-17.673 0-32 14.327-32 32v24h-8c-4.55 0.837-8 4.816-8 9.609v52.613c0 5.4 4.378 9.778 9.778 9.778h76.445c5.4 0 9.778-4.378 9.778-9.778v-52.613c0-4.792-3.45-8.772-8-9.609h-8v-24c0-17.673-14.327-32-32-32zM40 32c0-13.255 10.745-24 24-24s24 10.745 24 24v24h-48v-24zM68 94.921v9.079c0 2.209-1.791 4-4 4s-4-1.791-4-4v-9.079c-2.389-1.384-4-3.962-4-6.921 0-4.419 3.581-8 8-8s8 3.581 8 8c0 2.959-1.611 5.537-4 6.921z" fill="#000000"></path>
</svg>
