<?xml version="1.0" encoding="utf-8"?>
<!-- Generated by IcoMoon.io -->
<!DOCTYPE svg PUBLIC "-//W3C//DTD SVG 1.1//EN" "http://www.w3.org/Graphics/SVG/1.1/DTD/svg11.dtd">
<svg version="1.1" xmlns="http://www.w3.org/2000/svg" xmlns:xlink="http://www.w3.org/1999/xlink" width="128" height="128" viewBox="0 0 128 128">
<g id="icomoon-ignore">
	<line stroke-width="1" x1="" y1="" x2="" y2="" stroke="#449FDB" opacity=""></line>
</g>
	<path d="M28 112h72c15.464 0 28-12.536 28-28s-12.536-28-28-28c-0.076 0-0.15 0.005-0.226 0.005-1.987-18.002-17.243-32.005-35.774-32.005s-33.787 14.004-35.774 32.005c-0.076 0-0.15-0.005-0.226-0.005-15.464 0-28 12.536-28 28s12.536 28 28 28z" fill="#000000"></path>
	<path d="M21.497 48.589c4.221-15.855 16.955-27.96 32.818-31.514-5.764-5.613-13.634-9.075-22.315-9.075-17.673 0-32 14.327-32 32 0 6.088 1.7 11.778 4.652 16.623 4.723-4.033 10.494-6.871 16.845-8.035z" fill="#000000"></path>
</svg>
