<?xml version="1.0" encoding="utf-8"?>
<!-- Generated by IcoMoon.io -->
<!DOCTYPE svg PUBLIC "-//W3C//DTD SVG 1.1//EN" "http://www.w3.org/Graphics/SVG/1.1/DTD/svg11.dtd">
<svg version="1.1" xmlns="http://www.w3.org/2000/svg" xmlns:xlink="http://www.w3.org/1999/xlink" width="128" height="128" viewBox="0 0 128 128">
<g id="icomoon-ignore">
	<line stroke-width="1" x1="" y1="" x2="" y2="" stroke="#449FDB" opacity=""></line>
</g>
	<path d="M127.96 49.585c0.091-0.923 0.023-1.856-0.159-2.766l-7.763-46.819h-112l-7.764 46.819c-0.182 0.909-0.249 1.843-0.158 2.766 0.371 3.786 2.064 7.184 4.609 9.729 2.895 2.895 6.895 4.686 11.314 4.686s8.419-1.791 11.314-4.686 4.686-6.895 4.686-11.314c0 8.837 7.163 16 16 16s16-7.163 16-16c0 8.837 7.163 16 16 16s16-7.163 16-16c0 4.419 1.791 8.419 4.686 11.314s6.895 4.686 11.314 4.686 8.419-1.791 11.314-4.686c2.545-2.545 4.237-5.943 4.609-9.729z" fill="#000000"></path>
	<path d="M110.26 128c5.4 0 9.778-4.378 9.778-9.778v-47.598c-2.504 0.888-5.195 1.376-8 1.376-6.142 0-11.75-2.322-16-6.131-4.25 3.809-9.858 6.131-16 6.131s-11.75-2.322-16-6.131c-4.249 3.809-9.858 6.131-16 6.131s-11.75-2.322-16-6.131c-4.249 3.809-9.858 6.131-16 6.131-2.805 0-5.496-0.488-8-1.376v47.598c0 5.4 4.378 9.778 9.778 9.778h30.222v-48h32v48h30.222z" fill="#000000"></path>
</svg>
