<?xml version="1.0" encoding="utf-8"?>
<!-- Generated by IcoMoon.io -->
<!DOCTYPE svg PUBLIC "-//W3C//DTD SVG 1.1//EN" "http://www.w3.org/Graphics/SVG/1.1/DTD/svg11.dtd">
<svg version="1.1" xmlns="http://www.w3.org/2000/svg" xmlns:xlink="http://www.w3.org/1999/xlink" width="128" height="128" viewBox="0 0 128 128">
<g id="icomoon-ignore">
	<line stroke-width="1" x1="" y1="" x2="" y2="" stroke="#449FDB" opacity=""></line>
</g>
	<path d="M12 112c1.864 0 3.622-0.437 5.195-1.195-0.758 1.573-1.195 3.332-1.195 5.195 0 6.627 5.372 12 12 12s12-5.373 12-12c0-5.416-3.589-9.989-8.517-11.483l12.026-12.026c9.24 5.643 21.469 4.473 29.462-3.522 8-8 23.314-0.686 43.314-20.686 15.621-15.621 15.621-40.947 0-56.569s-40.948-15.62-56.569 0c-20 20-12.686 35.314-20.686 43.314-7.995 7.994-9.165 20.222-3.522 29.462l-12.026 12.026c-1.492-4.927-6.066-8.517-11.482-8.517-6.628 0-12 5.373-12 12s5.372 12 12 12z" fill="#000000"></path>
</svg>
