<?xml version="1.0" encoding="utf-8"?>
<!-- Generated by IcoMoon.io -->
<!DOCTYPE svg PUBLIC "-//W3C//DTD SVG 1.1//EN" "http://www.w3.org/Graphics/SVG/1.1/DTD/svg11.dtd">
<svg version="1.1" xmlns="http://www.w3.org/2000/svg" xmlns:xlink="http://www.w3.org/1999/xlink" width="128" height="128" viewBox="0 0 128 128">
<g id="icomoon-ignore">
	<line stroke-width="1" x1="" y1="" x2="" y2="" stroke="#449FDB" opacity=""></line>
</g>
	<path d="M85.41 91.387l-26.651 7.141-7.554 28.19c4.135 0.839 8.413 1.282 12.795 1.282 16.152 0 30.895-5.996 42.156-15.867l-20.747-20.746z" fill="#000000"></path>
	<path d="M124.693 43.699c-6.359-19.019-21.397-34.050-40.419-40.401l-7.647 28.541 19.511 19.511 28.555-7.651z" fill="#000000"></path>
	<path d="M0 64c0 4.373 0.442 8.642 1.277 12.768l28.172-7.549 7.141-26.653-20.724-20.724c-9.871 11.261-15.867 26.005-15.867 42.157z" fill="#000000"></path>
	<path d="M44.318 44.637l-7.141 26.652 19.51 19.51 26.653-7.141 7.141-26.651-19.51-19.511z" fill="#000000"></path>
	<path d="M98.208 59.077l-7.141 26.651 20.769 20.769c10.050-11.303 16.165-26.183 16.165-42.498 0-4.304-0.432-8.507-1.242-12.572l-28.55 7.65z" fill="#000000"></path>
	<path d="M3.371 84.489c6.368 18.85 21.268 33.755 40.114 40.132l7.547-28.163-19.511-19.511-28.149 7.543z" fill="#000000"></path>
	<path d="M21.501 16.165l20.746 20.746 26.653-7.141 7.645-28.532c-4.058-0.807-8.251-1.237-12.545-1.237-16.315 0-31.195 6.115-42.499 16.165z" fill="#000000"></path>
</svg>
