<?xml version="1.0" encoding="utf-8"?>
<!-- Generated by IcoMoon.io -->
<!DOCTYPE svg PUBLIC "-//W3C//DTD SVG 1.1//EN" "http://www.w3.org/Graphics/SVG/1.1/DTD/svg11.dtd">
<svg version="1.1" xmlns="http://www.w3.org/2000/svg" xmlns:xlink="http://www.w3.org/1999/xlink" width="128" height="128" viewBox="0 0 128 128">
<g id="icomoon-ignore">
	<line stroke-width="1" x1="" y1="" x2="" y2="" stroke="#449FDB" opacity=""></line>
</g>
	<path d="M72 120c0 2.521 0.197 4.995 0.572 7.412 12.853-1.722 24.488-7.265 33.746-15.437l-22.962-22.963c-7.079 8.364-11.356 19.174-11.356 30.989z" fill="#000000"></path>
	<path d="M127.412 72.572c-2.416-0.375-4.891-0.572-7.412-0.572-11.814 0-22.625 4.276-30.987 11.356l22.963 22.962c8.171-9.259 13.716-20.892 15.436-33.746z" fill="#000000"></path>
	<path d="M0.589 55.428c2.416 0.375 4.891 0.572 7.412 0.572 11.814 0 22.625-4.276 30.987-11.355l-22.962-22.962c-8.172 9.259-13.716 20.892-15.437 33.746z" fill="#000000"></path>
	<path d="M44.645 38.987c7.079-8.363 11.355-19.173 11.355-30.988 0-2.521-0.197-4.995-0.572-7.412-12.853 1.722-24.488 7.265-33.746 15.437l22.962 22.962z" fill="#000000"></path>
	<path d="M0 64c0 16.234 6.055 31.044 16.015 42.327l42.328-42.327-13.685-13.685c-9.824 8.518-22.634 13.685-36.658 13.685-2.712 0-5.376-0.203-7.986-0.576-0.002 0.193-0.014 0.383-0.014 0.576z" fill="#000000"></path>
	<path d="M69.657 64l13.685 13.685c9.825-8.518 22.634-13.685 36.658-13.685 2.712 0 5.376 0.203 7.986 0.576 0.002-0.193 0.014-0.383 0.014-0.576 0-16.234-6.055-31.044-16.015-42.327l-42.328 42.327z" fill="#000000"></path>
	<path d="M64 0c-0.193 0-0.383 0.013-0.576 0.014 0.373 2.61 0.576 5.274 0.576 7.986 0 14.024-5.167 26.834-13.685 36.658l13.685 13.685 42.327-42.328c-11.283-9.96-26.093-16.015-42.327-16.015z" fill="#000000"></path>
	<path d="M21.673 111.985c11.283 9.96 26.093 16.015 42.327 16.015 0.193 0 0.383-0.013 0.576-0.014-0.373-2.61-0.576-5.274-0.576-7.986 0-14.024 5.167-26.834 13.685-36.658l-13.685-13.685-42.327 42.328z" fill="#000000"></path>
</svg>
