<?xml version="1.0" encoding="utf-8"?>
<!-- Generated by IcoMoon.io -->
<!DOCTYPE svg PUBLIC "-//W3C//DTD SVG 1.1//EN" "http://www.w3.org/Graphics/SVG/1.1/DTD/svg11.dtd">
<svg version="1.1" xmlns="http://www.w3.org/2000/svg" xmlns:xlink="http://www.w3.org/1999/xlink" width="128" height="128" viewBox="0 0 128 128">
<g id="icomoon-ignore">
	<line stroke-width="1" x1="" y1="" x2="" y2="" stroke="#449FDB" opacity=""></line>
</g>
	<path d="M24 64c0 22.091 17.909 40 40 40s40-17.909 40-40-17.909-40-40-40-40 17.909-40 40zM56 36c0-2.209 1.791-4 4-4s4 1.791 4 4v28h20c2.209 0 4 1.791 4 4s-1.791 4-4 4h-28v-36z" fill="#000000"></path>
	<path d="M88 22.437v-22.437h-48v22.437c7.062-4.086 15.254-6.437 24-6.437s16.938 2.351 24 6.437z" fill="#000000"></path>
	<path d="M40 105.563v22.437h48v-22.437c-7.062 4.086-15.254 6.437-24 6.437s-16.938-2.351-24-6.437z" fill="#000000"></path>
</svg>
