<?xml version="1.0" encoding="utf-8"?>
<!-- Generated by IcoMoon.io -->
<!DOCTYPE svg PUBLIC "-//W3C//DTD SVG 1.1//EN" "http://www.w3.org/Graphics/SVG/1.1/DTD/svg11.dtd">
<svg version="1.1" xmlns="http://www.w3.org/2000/svg" xmlns:xlink="http://www.w3.org/1999/xlink" width="128" height="128" viewBox="0 0 128 128">
<g id="icomoon-ignore">
	<line stroke-width="1" x1="" y1="" x2="" y2="" stroke="#449FDB" opacity=""></line>
</g>
	<path d="M24 72c0 22.091 17.909 40 40 40s40-17.909 40-40-17.909-40-40-40-40 17.909-40 40zM88 76c0 2.209-1.791 4-4 4h-28v-36c0-2.209 1.791-4 4-4s4 1.791 4 4v28h20c2.209 0 4 1.791 4 4z" fill="#000000"></path>
	<path d="M8 72c0 30.928 25.072 56 56 56s56-25.072 56-56c0-28.211-20.863-51.539-48-55.422v-8.578h4.040c2.187 0 3.96-1.773 3.96-3.96v-0.080c0-2.187-1.773-3.96-3.96-3.96h-24.080c-2.187 0-3.96 1.773-3.96 3.96v0.080c0 2.187 1.773 3.96 3.96 3.96h4.040v8.578c-27.137 3.884-48 27.212-48 55.422zM112 72c0 26.509-21.491 48-48 48s-48-21.491-48-48 21.491-48 48-48 48 21.491 48 48z" fill="#000000"></path>
</svg>
