<?xml version="1.0" encoding="utf-8"?>
<!-- Generated by IcoMoon.io -->
<!DOCTYPE svg PUBLIC "-//W3C//DTD SVG 1.1//EN" "http://www.w3.org/Graphics/SVG/1.1/DTD/svg11.dtd">
<svg version="1.1" xmlns="http://www.w3.org/2000/svg" xmlns:xlink="http://www.w3.org/1999/xlink" width="128" height="128" viewBox="0 0 128 128">
<g id="icomoon-ignore">
	<line stroke-width="1" x1="" y1="" x2="" y2="" stroke="#449FDB" opacity=""></line>
</g>
	<path d="M8 40v8c0 4.419 3.581 8 8 8h0.053l0.025 14.726c-0.051 0.468-0.078 0.899-0.078 1.274v24c0 4.419 3.581 8 8 8h80c4.419 0 8-3.581 8-8v-40c4.419 0 8-3.581 8-8v-8c0-4.419-3.581-8-8-8v-8c0-13.255-10.745-24-24-24h-48c-13.255 0-24 10.745-24 24l0.013 8h-0.013c-4.419 0-8 3.581-8 8zM96 88c-4.419 0-8-3.581-8-8s3.581-8 8-8 8 3.581 8 8-3.581 8-8 8zM24 32v-8c0-8.836 7.163-16 16-16h48c8.837 0 16 7.163 16 16l-0.053 32h-79.947v-24zM32 72c4.419 0 8 3.581 8 8s-3.581 8-8 8-8-3.581-8-8 3.581-8 8-8z" fill="#000000"></path>
	<path d="M34.212 127.577c1.976 0.988 4.379 0.187 5.366-1.788l6.894-13.788h-8.945l-5.105 10.211c-0.988 1.975-0.187 4.379 1.789 5.366z" fill="#000000"></path>
	<path d="M81.527 112l6.894 13.787c0.987 1.976 3.39 2.777 5.366 1.788s2.777-3.39 1.788-5.366l-5.104-10.21h-8.945z" fill="#000000"></path>
</svg>
