<?xml version="1.0" encoding="utf-8"?>
<!-- Generated by IcoMoon.io -->
<!DOCTYPE svg PUBLIC "-//W3C//DTD SVG 1.1//EN" "http://www.w3.org/Graphics/SVG/1.1/DTD/svg11.dtd">
<svg version="1.1" xmlns="http://www.w3.org/2000/svg" xmlns:xlink="http://www.w3.org/1999/xlink" width="128" height="128" viewBox="0 0 128 128">
<g id="icomoon-ignore">
	<line stroke-width="1" x1="" y1="" x2="" y2="" stroke="#449FDB" opacity=""></line>
</g>
	<path d="M7.92 64h0.080v32c0 4.419 3.581 8 8 8v8c0 4.419 3.581 8 8 8h8c4.419 0 8-3.581 8-8v-8h48v8c0 4.419 3.581 8 8 8h8c4.419 0 8-3.581 8-8v-8c4.419 0 8-3.581 8-8v-32h0.080c4.374 0 7.92-3.546 7.92-7.92v-0.16c0-4.374-3.546-7.92-7.92-7.92h-8.080c0-13.255-10.745-24-24-24l-5.716-11.549c-1.349-2.725-4.128-4.451-7.17-4.451h-22.112c-3.019 0-5.781 1.7-7.141 4.394l-5.861 11.606c-13.255 0-24 10.745-24 24h-8.080c-4.374 0-7.92 3.546-7.92 7.92v0.16c0 4.374 3.546 7.92 7.92 7.92zM88 80.080c0 4.374-3.546 7.92-7.92 7.92h-32.16c-4.374 0-7.92-3.546-7.92-7.92v-0.16c0-4.374 3.546-7.92 7.92-7.92h32.16c4.374 0 7.92 3.546 7.92 7.92v0.16zM112 79.92v0.16c0 4.374-3.546 7.92-7.92 7.92h-0.16c-4.374 0-7.92-3.546-7.92-7.92v-0.16c0-4.374 3.546-7.92 7.92-7.92h0.16c4.374 0 7.92 3.546 7.92 7.92zM24 55.92v-7.92c0-8.837 7.163-16 16-16h48c8.837 0 16 7.163 16 16l-0.040 8h-79.96v-0.080zM16 79.92c0-4.374 3.546-7.92 7.92-7.92h0.16c4.374 0 7.92 3.546 7.92 7.92v0.16c0 4.374-3.546 7.92-7.92 7.92h-0.16c-4.374 0-7.92-3.546-7.92-7.92v-0.16z" fill="#000000"></path>
</svg>
