<?xml version="1.0" encoding="utf-8"?>
<!-- Generated by IcoMoon.io -->
<!DOCTYPE svg PUBLIC "-//W3C//DTD SVG 1.1//EN" "http://www.w3.org/Graphics/SVG/1.1/DTD/svg11.dtd">
<svg version="1.1" xmlns="http://www.w3.org/2000/svg" xmlns:xlink="http://www.w3.org/1999/xlink" width="128" height="128" viewBox="0 0 128 128">
<g id="icomoon-ignore">
	<line stroke-width="1" x1="" y1="" x2="" y2="" stroke="#449FDB" opacity=""></line>
</g>
	<path d="M9.778 120.148h108.445c5.4 0 9.778-4.378 9.778-9.778v-68.445c0-5.4-4.378-9.778-9.778-9.778h-44.565l25.319-25.319c1.562-1.563 1.562-4.095 0-5.657s-4.094-1.562-5.657 0l-29.319 29.319-28.876-28.875c-1.563-1.562-4.095-1.562-5.657 0s-1.562 4.095 0 5.657l24.876 24.875h-44.565c-5.4 0-9.778 4.378-9.778 9.778v68.445c0 5.4 4.378 9.778 9.778 9.778zM112 40.148c4.419 0 8 3.582 8 8s-3.581 8-8 8-8-3.581-8-8c0-4.419 3.581-8 8-8zM112 64.148c4.419 0 8 3.582 8 8s-3.581 8-8 8-8-3.581-8-8c0-4.419 3.581-8 8-8zM8 49.926c0-5.4 4.378-9.778 9.778-9.778h68.445c5.4 0 9.778 4.378 9.778 9.778v52.444c0 5.4-4.378 9.778-9.778 9.778h-68.445c-5.4 0-9.778-4.378-9.778-9.778v-52.444z" fill="#000000"></path>
</svg>
