<?xml version="1.0" encoding="utf-8"?>
<!-- Generated by IcoMoon.io -->
<!DOCTYPE svg PUBLIC "-//W3C//DTD SVG 1.1//EN" "http://www.w3.org/Graphics/SVG/1.1/DTD/svg11.dtd">
<svg version="1.1" xmlns="http://www.w3.org/2000/svg" xmlns:xlink="http://www.w3.org/1999/xlink" width="128" height="128" viewBox="0 0 128 128">
<g id="icomoon-ignore">
	<line stroke-width="1" x1="" y1="" x2="" y2="" stroke="#449FDB" opacity=""></line>
</g>
	<path d="M80 72c0 8.837-7.163 16-16 16s-16-7.163-16-16c0-8.837 7.163-16 16-16s16 7.163 16 16z" fill="#000000"></path>
	<path d="M118.222 24h-30.222v-6.222c0-5.4-4.378-9.778-9.778-9.778h-28.445c-5.4 0-9.778 4.378-9.778 9.778v6.222h-30.222c-5.4 0-9.778 4.378-9.778 9.778v76.445c0 5.4 4.378 9.778 9.778 9.778h108.445c5.4 0 9.778-4.378 9.778-9.778v-76.445c0-5.4-4.378-9.778-9.778-9.778zM64 104c-17.673 0-32-14.327-32-32s14.327-32 32-32 32 14.327 32 32-14.327 32-32 32zM112 48c-4.419 0-8-3.581-8-8s3.581-8 8-8 8 3.581 8 8-3.581 8-8 8z" fill="#000000"></path>
</svg>
