<?xml version="1.0" encoding="utf-8"?>
<!-- Generated by IcoMoon.io -->
<!DOCTYPE svg PUBLIC "-//W3C//DTD SVG 1.1//EN" "http://www.w3.org/Graphics/SVG/1.1/DTD/svg11.dtd">
<svg version="1.1" xmlns="http://www.w3.org/2000/svg" xmlns:xlink="http://www.w3.org/1999/xlink" width="128" height="128" viewBox="0 0 128 128">
<g id="icomoon-ignore">
	<line stroke-width="1" x1="" y1="" x2="" y2="" stroke="#449FDB" opacity=""></line>
</g>
	<path d="M112 88h0.080c4.374 0 7.92-3.546 7.92-7.92v-0.16c0-4.374-3.546-7.92-7.92-7.92h-8.080c0-13.255-10.745-24-24-24h-32c-13.255 0-24 10.745-24 24h-8.080c-4.374 0-7.92 3.546-7.92 7.92v0.16c0 4.374 3.546 7.92 7.92 7.92h0.080v16c0 4.419 3.581 8 8 8v8c0 4.419 3.581 8 8 8h8c4.419 0 8-3.581 8-8v-8h32v8c0 4.419 3.581 8 8 8h8c4.419 0 8-3.581 8-8v-8c4.419 0 8-3.581 8-8v-16zM32 72c0-8.837 7.163-16 16-16h32c8.837 0 16 7.163 16 16l-0.040 8h-63.96v-8zM40 96.080c0 4.374-3.546 7.92-7.92 7.92h-0.16c-4.374 0-7.92-3.546-7.92-7.92v-0.16c0-4.374 3.546-7.92 7.92-7.92h0.16c4.374 0 7.92 3.546 7.92 7.92v0.16zM79.92 96.080c0 4.374-3.546 7.92-7.92 7.92h-16.16c-4.374 0-7.92-3.546-7.92-7.92v-0.16c0-4.374 3.546-7.92 7.92-7.92h16.16c4.374 0 8 3.546 8 7.92l-0.080 0.16zM104 96.080c0 4.374-3.546 7.92-7.92 7.92h-0.16c-4.374 0-7.92-3.546-7.92-7.92v-0.16c0-4.374 3.546-7.92 7.92-7.92h0.16c4.374 0 7.92 3.546 7.92 7.92v0.16z" fill="#000000"></path>
	<path d="M8 16v50.13c2.336-1.347 5.035-2.13 7.92-2.13h1.092c3.561-13.787 16.104-24 30.988-24h32c14.883 0 27.427 10.213 30.987 24h1.093c2.885 0 5.584 0.783 7.92 2.13v-50.13c0-8.836-7.163-16-16-16h-80c-8.836 0-16 7.163-16 16z" fill="#000000"></path>
</svg>
