<?xml version="1.0" encoding="utf-8"?>
<!-- Generated by IcoMoon.io -->
<!DOCTYPE svg PUBLIC "-//W3C//DTD SVG 1.1//EN" "http://www.w3.org/Graphics/SVG/1.1/DTD/svg11.dtd">
<svg version="1.1" xmlns="http://www.w3.org/2000/svg" xmlns:xlink="http://www.w3.org/1999/xlink" width="128" height="128" viewBox="0 0 128 128">
<g id="icomoon-ignore">
	<line stroke-width="1" x1="" y1="" x2="" y2="" stroke="#449FDB" opacity=""></line>
</g>
	<path d="M31.891 16h88.109v-6.222c0-5.4-4.378-9.778-9.778-9.778h-78.222c-13.255 0-24 10.745-24 24v80c0 13.255 10.745 24 24 24h78.222c5.4 0 9.778-4.378 9.778-9.778v-76.445c0-5.4-4.378-9.778-9.778-9.778h-22.222v32l-8-8-8 8v-32h-40.384c-4.594 0-8.285-3.873-7.982-8.532 0.275-4.253 3.995-7.468 8.257-7.468z" fill="#000000"></path>
</svg>
