<?xml version="1.0" encoding="utf-8"?>
<!-- Generated by IcoMoon.io -->
<!DOCTYPE svg PUBLIC "-//W3C//DTD SVG 1.1//EN" "http://www.w3.org/Graphics/SVG/1.1/DTD/svg11.dtd">
<svg version="1.1" xmlns="http://www.w3.org/2000/svg" xmlns:xlink="http://www.w3.org/1999/xlink" width="128" height="128" viewBox="0 0 128 128">
<g id="icomoon-ignore">
	<line stroke-width="1" x1="" y1="" x2="" y2="" stroke="#449FDB" opacity=""></line>
</g>
	<path d="M8 64h0.064l0.014 6.942c-0.046 0.347-0.078 0.698-0.078 1.058v32c0 4.419 3.581 8 8 8v8c0 4.419 3.581 8 8 8h8c4.419 0 8-3.581 8-8v-8h48v8c0 4.419 3.581 8 8 8h8c4.419 0 8-3.581 8-8v-8c4.419 0 8-3.581 8-8v-40c4.419 0 8-3.581 8-8v-8c0-4.419-3.581-8-8-8v-16c0-13.255-10.745-24-24-24h-64c-13.255 0-24 10.745-24 24v8l0.016 8h-0.016c-4.419 0-8 3.581-8 8v8c0 4.419 3.581 8 8 8zM40 88.080c0 4.374-3.546 7.92-7.92 7.92h-8.16c-4.374 0-7.92-3.546-7.92-7.92v-0.16c0-4.374 3.546-7.92 7.92-7.92h8.16c4.374 0 7.92 3.546 7.92 7.92v0.16zM112 88.080c0 4.374-3.546 7.92-7.92 7.92h-8.16c-4.374 0-7.92-3.546-7.92-7.92v-0.16c0-4.374 3.546-7.92 7.92-7.92h8.16c4.374 0 7.92 3.546 7.92 7.92v0.16zM16 24c0-8.836 7.163-16 16-16h64c8.837 0 16 7.163 16 16l-0.067 40h-95.933v-40z" fill="#000000"></path>
</svg>
