<?xml version="1.0" encoding="utf-8"?>
<!-- Generated by IcoMoon.io -->
<!DOCTYPE svg PUBLIC "-//W3C//DTD SVG 1.1//EN" "http://www.w3.org/Graphics/SVG/1.1/DTD/svg11.dtd">
<svg version="1.1" xmlns="http://www.w3.org/2000/svg" xmlns:xlink="http://www.w3.org/1999/xlink" width="128" height="128" viewBox="0 0 128 128">
<g id="icomoon-ignore">
	<line stroke-width="1" x1="" y1="" x2="" y2="" stroke="#449FDB" opacity=""></line>
</g>
	<path d="M32 40h-8v8h-8v8h8v8h8v-8h8v-8h-8z" fill="#000000"></path>
	<path d="M112 24h-8v-0.080c0-4.374-3.546-7.92-7.92-7.92h-8.16c-4.374 0-7.92 3.546-7.92 7.92v0.080h-32v-0.080c0-4.374-3.546-7.92-7.92-7.92h-8.16c-4.374 0-7.92 3.546-7.92 7.92v0.080h-8c-8.836 0-16 7.163-16 16v60.2c0 10.935 8.865 19.8 19.8 19.8h0.4c10.935 0 19.8-8.865 19.8-19.8v-20.2h48v20.2c0 10.935 8.865 19.8 19.8 19.8h0.4c10.935 0 19.8-8.865 19.8-19.8v-60.2c0-8.837-7.163-16-16-16zM28 72c-11.045 0-20-8.955-20-20s8.955-20 20-20 20 8.955 20 20-8.955 20-20 20zM100 72c-11.045 0-20-8.955-20-20s8.955-20 20-20 20 8.955 20 20-8.955 20-20 20z" fill="#000000"></path>
	<path d="M88 40h8v8h-8v-8z" fill="#000000"></path>
	<path d="M104 40h8v8h-8v-8z" fill="#000000"></path>
	<path d="M104 56h8v8h-8v-8z" fill="#000000"></path>
	<path d="M88 56h8v8h-8v-8z" fill="#000000"></path>
</svg>
