<?xml version="1.0" encoding="utf-8"?>
<!-- Generated by IcoMoon.io -->
<!DOCTYPE svg PUBLIC "-//W3C//DTD SVG 1.1//EN" "http://www.w3.org/Graphics/SVG/1.1/DTD/svg11.dtd">
<svg version="1.1" xmlns="http://www.w3.org/2000/svg" xmlns:xlink="http://www.w3.org/1999/xlink" width="128" height="128" viewBox="0 0 128 128">
<g id="icomoon-ignore">
	<line stroke-width="1" x1="" y1="" x2="" y2="" stroke="#449FDB" opacity=""></line>
</g>
	<path d="M48 8c-4.419 0-8 3.581-8 8v8h48v-8c0-4.419-3.581-8-8-8h-8c0-4.419-3.581-8-8-8s-8 3.581-8 8h-8z" fill="#000000"></path>
	<path d="M17.778 16c-5.4 0-9.778 4.378-9.778 9.778v92.445c0 5.4 4.378 9.778 9.778 9.778h92.445c5.4 0 9.778-4.378 9.778-9.778v-92.445c0-5.4-4.378-9.778-9.778-9.778h-14.222v16h-64v-16h-14.222zM32 64h24v8h-24v-8zM56 104h-24v-8h24v8zM96 88h-64v-8h64v8zM96 48v8h-64v-8h64z" fill="#000000"></path>
</svg>
