<?xml version="1.0" encoding="utf-8"?>
<!-- Generated by IcoMoon.io -->
<!DOCTYPE svg PUBLIC "-//W3C//DTD SVG 1.1//EN" "http://www.w3.org/Graphics/SVG/1.1/DTD/svg11.dtd">
<svg version="1.1" xmlns="http://www.w3.org/2000/svg" xmlns:xlink="http://www.w3.org/1999/xlink" width="128" height="128" viewBox="0 0 128 128">
<g id="icomoon-ignore">
	<line stroke-width="1" x1="" y1="" x2="" y2="" stroke="#449FDB" opacity=""></line>
</g>
	<path d="M113.979 57.156l-14.433-7.045-12.717 12.718c-1.562 1.562-4.095 1.562-5.657 0s-1.562-4.095 0-5.657l10.772-10.771-8.525-4.162-12.59 12.59c-1.562 1.562-4.095 1.562-5.657 0s-1.562-4.095 0-5.657l10.645-10.645-19.859-9.693c-3.553-1.734-7.867-0.636-10.084 2.638-2.745 4.054-8.748 8.528-21.874 8.528-5.386 0-9.865-0.907-13.438-2.109-5.192-1.748-10.562 2.096-10.562 7.574v34.535h128v-0.397c0-9.547-5.442-18.259-14.021-22.447zM28 72c-6.628 0-12-5.373-12-12s5.372-12 12-12 12 5.373 12 12-5.373 12-12 12z" fill="#000000"></path>
	<path d="M0 88.16c0 8.749 7.091 15.84 15.84 15.84h96.32c8.749 0 15.84-7.091 15.84-15.84v-0.16h-128v0.16z" fill="#000000"></path>
</svg>
