<?xml version="1.0" encoding="utf-8"?>
<!-- Generated by IcoMoon.io -->
<!DOCTYPE svg PUBLIC "-//W3C//DTD SVG 1.1//EN" "http://www.w3.org/Graphics/SVG/1.1/DTD/svg11.dtd">
<svg version="1.1" xmlns="http://www.w3.org/2000/svg" xmlns:xlink="http://www.w3.org/1999/xlink" width="128" height="128" viewBox="0 0 128 128">
<g id="icomoon-ignore">
	<line stroke-width="1" x1="" y1="" x2="" y2="" stroke="#449FDB" opacity=""></line>
</g>
	<path d="M80 112c0 8.837-7.163 16-16 16s-16-7.163-16-16c0-8.837 7.163-16 16-16s16 7.163 16 16z" fill="#000000"></path>
	<path d="M91.424 72.614c-7.776-5.424-17.225-8.614-27.424-8.614s-19.648 3.19-27.424 8.614l9.141 13.129c5.184-3.616 11.483-5.743 18.283-5.743s13.099 2.127 18.283 5.743l9.141-13.129z" fill="#000000"></path>
	<path d="M27.436 59.486c10.366-7.232 22.965-11.486 36.564-11.486s26.198 4.254 36.565 11.486l9.148-13.139c-12.957-9.041-28.714-14.348-45.713-14.348s-32.755 5.307-45.714 14.347l9.149 13.139z" fill="#000000"></path>
</svg>
