<?xml version="1.0" encoding="utf-8"?>
<!-- Generated by IcoMoon.io -->
<!DOCTYPE svg PUBLIC "-//W3C//DTD SVG 1.1//EN" "http://www.w3.org/Graphics/SVG/1.1/DTD/svg11.dtd">
<svg version="1.1" xmlns="http://www.w3.org/2000/svg" xmlns:xlink="http://www.w3.org/1999/xlink" width="128" height="128" viewBox="0 0 128 128">
<g id="icomoon-ignore">
	<line stroke-width="1" x1="" y1="" x2="" y2="" stroke="#449FDB" opacity=""></line>
</g>
	<path d="M104 0c-2.209 0-4 1.791-4 4s1.791 4 4 4c8.837 0 16 7.163 16 16v48.169c-0.577-0.107-1.17-0.169-1.778-0.169h-36.445c-5.4 0-9.778 4.378-9.778 9.778v-1.778h-16v1.778c0-5.4-4.378-9.778-9.778-9.778h-36.444c-0.608 0-1.201 0.063-1.778 0.169v-48.169c0-8.836 7.164-16 16-16 2.209 0 4-1.791 4-4s-1.791-4-4-4c-13.255 0-24 10.745-24 24v94.222c0 5.4 4.378 9.778 9.778 9.778h36.444c5.4 0 9.778-4.378 9.778-9.778v-30.222h16v30.222c0 5.4 4.378 9.778 9.778 9.778h36.445c5.4 0 9.778-4.378 9.778-9.778v-94.222c0-13.255-10.745-24-24-24zM48 120h-40v-40h40v40zM120 120h-40v-40h40v40z" fill="#000000"></path>
</svg>
