<?xml version="1.0" encoding="utf-8"?>
<!-- Generated by IcoMoon.io -->
<!DOCTYPE svg PUBLIC "-//W3C//DTD SVG 1.1//EN" "http://www.w3.org/Graphics/SVG/1.1/DTD/svg11.dtd">
<svg version="1.1" xmlns="http://www.w3.org/2000/svg" xmlns:xlink="http://www.w3.org/1999/xlink" width="128" height="128" viewBox="0 0 128 128">
<g id="icomoon-ignore">
	<line stroke-width="1" x1="" y1="" x2="" y2="" stroke="#449FDB" opacity=""></line>
</g>
	<path d="M64 16c-26.509 0-48 21.491-48 48s21.491 48 48 48 48-21.491 48-48-21.491-48-48-48zM84 72h-28v-44c0-2.209 1.791-4 4-4s4 1.791 4 4v36h20c2.209 0 4 1.791 4 4s-1.791 4-4 4z" fill="#000000"></path>
	<path d="M64 0c-35.347 0-64 28.653-64 64s28.653 64 64 64 64-28.653 64-64-28.653-64-64-64zM64 120c-30.928 0-56-25.072-56-56s25.072-56 56-56 56 25.072 56 56-25.072 56-56 56z" fill="#000000"></path>
</svg>
