<?xml version="1.0" encoding="utf-8"?>
<!-- Generated by IcoMoon.io -->
<!DOCTYPE svg PUBLIC "-//W3C//DTD SVG 1.1//EN" "http://www.w3.org/Graphics/SVG/1.1/DTD/svg11.dtd">
<svg version="1.1" xmlns="http://www.w3.org/2000/svg" xmlns:xlink="http://www.w3.org/1999/xlink" width="128" height="128" viewBox="0 0 128 128">
<g id="icomoon-ignore">
	<line stroke-width="1" x1="" y1="" x2="" y2="" stroke="#449FDB" opacity=""></line>
</g>
	<path d="M16 103.153c0 6.755 7.854 10.469 13.075 6.184l57.165-38.958c0.694-0.473 1.272-1.035 1.759-1.648v35.269c0 4.419 3.581 8 8 8h8c4.419 0 8-3.581 8-8v-80c0-4.419-3.581-8-8-8h-8c-4.419 0-8 3.581-8 8v34.805c-0.496-0.624-1.086-1.195-1.796-1.674l-57.165-38.489c-5.229-4.241-13.038-0.519-13.038 6.213v78.297z" fill="#000000"></path>
</svg>
