<?xml version="1.0" encoding="utf-8"?>
<!-- Generated by IcoMoon.io -->
<!DOCTYPE svg PUBLIC "-//W3C//DTD SVG 1.1//EN" "http://www.w3.org/Graphics/SVG/1.1/DTD/svg11.dtd">
<svg version="1.1" xmlns="http://www.w3.org/2000/svg" xmlns:xlink="http://www.w3.org/1999/xlink" width="128" height="128" viewBox="0 0 128 128">
<g id="icomoon-ignore">
	<line stroke-width="1" x1="" y1="" x2="" y2="" stroke="#449FDB" opacity=""></line>
</g>
	<path d="M112 60c-2.917 0-5.644 0.794-8 2.158v-38.158h-38.158c1.365-2.355 2.158-5.083 2.158-8 0-8.836-7.163-16-16-16s-16 7.163-16 16c0 2.917 0.794 5.645 2.158 8h-38.158v38.158c2.356-1.364 5.083-2.158 8-2.158 8.837 0 16 7.163 16 16s-7.163 16-16 16c-2.917 0-5.644-0.794-8-2.158v38.158h38.158c-1.364-2.356-2.158-5.083-2.158-8 0-8.837 7.163-16 16-16s16 7.163 16 16c0 2.917-0.794 5.644-2.158 8h38.158v-38.158c2.356 1.365 5.083 2.158 8 2.158 8.837 0 16-7.163 16-16s-7.163-16-16-16z" fill="#000000"></path>
</svg>
