<?xml version="1.0" encoding="utf-8"?>
<!-- Generated by IcoMoon.io -->
<!DOCTYPE svg PUBLIC "-//W3C//DTD SVG 1.1//EN" "http://www.w3.org/Graphics/SVG/1.1/DTD/svg11.dtd">
<svg version="1.1" xmlns="http://www.w3.org/2000/svg" xmlns:xlink="http://www.w3.org/1999/xlink" width="128" height="128" viewBox="0 0 128 128">
<g id="icomoon-ignore">
	<line stroke-width="1" x1="" y1="" x2="" y2="" stroke="#449FDB" opacity=""></line>
</g>
	<path d="M8 88h24l26.343 26.343c5.040 5.040 13.657 1.47 13.657-5.657v-89.373c0-7.127-8.617-10.697-13.657-5.657l-26.343 26.343h-24c-4.419 0-8 3.581-8 8v32c0 4.419 3.581 8 8 8z" fill="#000000"></path>
	<path d="M103.598 24.402c10.133 10.134 16.402 24.134 16.402 39.598s-6.269 29.464-16.402 39.598l5.657 5.657c11.581-11.582 18.745-27.582 18.745-45.255s-7.163-33.673-18.745-45.255l-5.657 5.657z" fill="#000000"></path>
	<path d="M92.284 92.284c7.238-7.239 11.716-17.239 11.716-28.285s-4.477-21.045-11.716-28.285l-5.657 5.657c5.791 5.791 9.373 13.791 9.373 22.627s-3.581 16.837-9.373 22.627l5.657 5.657z" fill="#000000"></path>
</svg>
