<?xml version="1.0" encoding="utf-8"?>
<!-- Generated by IcoMoon.io -->
<!DOCTYPE svg PUBLIC "-//W3C//DTD SVG 1.1//EN" "http://www.w3.org/Graphics/SVG/1.1/DTD/svg11.dtd">
<svg version="1.1" xmlns="http://www.w3.org/2000/svg" xmlns:xlink="http://www.w3.org/1999/xlink" width="128" height="128" viewBox="0 0 128 128">
<g id="icomoon-ignore">
	<line stroke-width="1" x1="" y1="" x2="" y2="" stroke="#449FDB" opacity=""></line>
</g>
	<path d="M16 24v80c0 4.419 3.581 8 8 8h8c4.419 0 8-3.581 8-8v-35.269c0.487 0.612 1.065 1.174 1.759 1.648l57.165 38.958c5.221 4.286 13.076 0.572 13.076-6.184v-78.297c0-6.733-7.809-10.454-13.038-6.213l-57.165 38.489c-0.71 0.478-1.3 1.050-1.797 1.674v-34.805c0-4.419-3.581-8-8-8h-8c-4.419 0-8 3.581-8 8z" fill="#000000"></path>
</svg>
