<?xml version="1.0" encoding="utf-8"?>
<!-- Generated by IcoMoon.io -->
<!DOCTYPE svg PUBLIC "-//W3C//DTD SVG 1.1//EN" "http://www.w3.org/Graphics/SVG/1.1/DTD/svg11.dtd">
<svg version="1.1" xmlns="http://www.w3.org/2000/svg" xmlns:xlink="http://www.w3.org/1999/xlink" width="128" height="128" viewBox="0 0 128 128">
<g id="icomoon-ignore">
	<line stroke-width="1" x1="" y1="" x2="" y2="" stroke="#449FDB" opacity=""></line>
</g>
	<path d="M64 128c35.347 0 64-28.653 64-64s-28.653-64-64-64-64 28.653-64 64 28.653 64 64 64zM34.343 45.657c-3.125-3.124-3.125-8.189 0-11.314s8.189-3.125 11.315 0l18.342 18.343 18.343-18.343c3.125-3.125 8.189-3.125 11.315 0s3.124 8.189 0 11.314l-18.344 18.343 18.343 18.343c3.124 3.124 3.124 8.189 0 11.314-1.563 1.562-3.609 2.343-5.657 2.343s-4.094-0.781-5.657-2.343l-18.343-18.343-18.343 18.343c-1.563 1.562-3.609 2.343-5.657 2.343s-4.094-0.781-5.657-2.343c-3.125-3.124-3.125-8.189 0-11.314l18.343-18.343-18.343-18.343z" fill="#000000"></path>
</svg>
