<?xml version="1.0" encoding="utf-8"?>
<!-- Generated by IcoMoon.io -->
<!DOCTYPE svg PUBLIC "-//W3C//DTD SVG 1.1//EN" "http://www.w3.org/Graphics/SVG/1.1/DTD/svg11.dtd">
<svg version="1.1" xmlns="http://www.w3.org/2000/svg" xmlns:xlink="http://www.w3.org/1999/xlink" width="128" height="128" viewBox="0 0 128 128">
<g id="icomoon-ignore">
	<line stroke-width="1" x1="" y1="" x2="" y2="" stroke="#449FDB" opacity=""></line>
</g>
	<path d="M80 16c0 8.837-7.163 16-16 16s-16-7.163-16-16c0-8.836 7.163-16 16-16s16 7.163 16 16z" fill="#000000"></path>
	<path d="M40 47.92v32.16c0 4.374 3.546 7.92 7.92 7.92h0.080v30.222c0 5.4 4.378 9.778 9.778 9.778h12.445c5.4 0 9.778-4.378 9.778-9.778v-30.222h0.080c4.374 0 7.92-3.546 7.92-7.92v-32.16c0-4.374-3.546-7.92-7.92-7.92h-32.16c-4.374 0-7.92 3.546-7.92 7.92z" fill="#000000"></path>
</svg>
