<?xml version="1.0" encoding="utf-8"?>
<!-- Generated by IcoMoon.io -->
<!DOCTYPE svg PUBLIC "-//W3C//DTD SVG 1.1//EN" "http://www.w3.org/Graphics/SVG/1.1/DTD/svg11.dtd">
<svg version="1.1" xmlns="http://www.w3.org/2000/svg" xmlns:xlink="http://www.w3.org/1999/xlink" width="128" height="128" viewBox="0 0 128 128">
<g id="icomoon-ignore">
	<line stroke-width="1" x1="" y1="" x2="" y2="" stroke="#449FDB" opacity=""></line>
</g>
	<path d="M64 0c-35.347 0-64 28.653-64 64s28.653 64 64 64 64-28.653 64-64-28.653-64-64-64zM103.92 64.080c0 4.374-3.546 7.92-7.92 7.92h-24v24c0 4.374-3.546 7.92-7.92 7.92h-0.16c-4.374 0-7.92-3.546-7.92-7.92v-24h-24c-4.374 0-7.92-3.546-7.92-7.92v-0.16c0-4.374 3.546-7.92 7.92-7.92h24v-24c0-4.374 3.546-7.92 7.92-7.92h0.16c4.374 0 7.92 3.546 7.92 7.92v24h24c4.374 0 7.92 3.546 7.92 7.92v0.16z" fill="#000000"></path>
</svg>
