<?xml version="1.0" encoding="utf-8"?>
<!-- Generated by IcoMoon.io -->
<!DOCTYPE svg PUBLIC "-//W3C//DTD SVG 1.1//EN" "http://www.w3.org/Graphics/SVG/1.1/DTD/svg11.dtd">
<svg version="1.1" xmlns="http://www.w3.org/2000/svg" xmlns:xlink="http://www.w3.org/1999/xlink" width="128" height="128" viewBox="0 0 128 128">
<g id="icomoon-ignore">
	<line stroke-width="1" x1="" y1="" x2="" y2="" stroke="#449FDB" opacity=""></line>
</g>
	<path d="M64 128c35.347 0 64-28.653 64-64s-28.653-64-64-64-64 28.653-64 64c0 35.347 28.653 64 64 64zM64 24c4.419 0 8 3.581 8 8s-3.581 8-8 8-8-3.581-8-8c0-4.419 3.581-8 8-8zM56 56c0-4.419 3.581-8 8-8s8 3.581 8 8v40c0 4.419-3.581 8-8 8s-8-3.581-8-8v-40z" fill="#000000"></path>
</svg>
