<?xml version="1.0" encoding="utf-8"?>
<!-- Generated by IcoMoon.io -->
<!DOCTYPE svg PUBLIC "-//W3C//DTD SVG 1.1//EN" "http://www.w3.org/Graphics/SVG/1.1/DTD/svg11.dtd">
<svg version="1.1" xmlns="http://www.w3.org/2000/svg" xmlns:xlink="http://www.w3.org/1999/xlink" width="128" height="128" viewBox="0 0 128 128">
<g id="icomoon-ignore">
	<line stroke-width="1" x1="" y1="" x2="" y2="" stroke="#449FDB" opacity=""></line>
</g>
	<path d="M80 16c0 8.837-7.163 16-16 16s-16-7.163-16-16c0-8.836 7.163-16 16-16s16 7.163 16 16z" fill="#000000"></path>
	<path d="M57.778 128h12.445c5.4 0 9.778-4.378 9.778-9.778v-22.222h4.726c5.95 0 10.521-5.27 9.679-11.161l-5.206-36.444c-0.688-4.817-4.813-8.395-9.679-8.395h-31.040c-4.866 0-8.991 3.578-9.679 8.395l-5.206 36.444c-0.842 5.891 3.729 11.161 9.679 11.161h4.726v22.222c0 5.4 4.378 9.778 9.778 9.778z" fill="#000000"></path>
</svg>
