<?xml version="1.0" encoding="utf-8"?>
<!-- Generated by IcoMoon.io -->
<!DOCTYPE svg PUBLIC "-//W3C//DTD SVG 1.1//EN" "http://www.w3.org/Graphics/SVG/1.1/DTD/svg11.dtd">
<svg version="1.1" xmlns="http://www.w3.org/2000/svg" xmlns:xlink="http://www.w3.org/1999/xlink" width="128" height="128" viewBox="0 0 128 128">
<g id="icomoon-ignore">
	<line stroke-width="1" x1="" y1="" x2="" y2="" stroke="#449FDB" opacity=""></line>
</g>
	<path d="M64 32c-4.419 0-8 3.581-8 8v60.686l-34.343-34.343c-3.125-3.124-8.189-3.124-11.314 0s-3.124 8.189 0 11.314l48 48c1.448 1.448 3.448 2.343 5.657 2.343s4.209-0.895 5.657-2.343l48-48c3.124-3.124 3.124-8.189 0-11.314s-8.189-3.124-11.314 0l-34.343 34.343v-60.686c0-4.419-3.581-8-8-8z" fill="#000000"></path>
	<path d="M120 0h-112c-4.419 0-8 3.581-8 8s3.581 8 8 8h112c4.419 0 8-3.581 8-8s-3.581-8-8-8z" fill="#000000"></path>
</svg>
