<?xml version="1.0" encoding="utf-8"?>
<!-- Generated by IcoMoon.io -->
<!DOCTYPE svg PUBLIC "-//W3C//DTD SVG 1.1//EN" "http://www.w3.org/Graphics/SVG/1.1/DTD/svg11.dtd">
<svg version="1.1" xmlns="http://www.w3.org/2000/svg" xmlns:xlink="http://www.w3.org/1999/xlink" width="128" height="128" viewBox="0 0 128 128">
<g id="icomoon-ignore">
	<line stroke-width="1" x1="" y1="" x2="" y2="" stroke="#449FDB" opacity=""></line>
</g>
	<path d="M34.343 101.657c3.124 3.124 8.189 3.124 11.314 0s3.124-8.189 0-11.314l-26.343-26.343 26.343-26.343c3.124-3.124 3.124-8.189 0-11.314s-8.189-3.125-11.314 0l-32 32c-1.448 1.448-2.343 3.448-2.343 5.657s0.895 4.209 2.343 5.657l32 32z" fill="#000000"></path>
	<path d="M82.343 101.657c3.124 3.124 8.189 3.124 11.314 0l32-32c1.448-1.448 2.343-3.448 2.343-5.657s-0.895-4.209-2.343-5.657l-32-32c-3.124-3.125-8.189-3.125-11.314 0s-3.124 8.189 0 11.314l26.343 26.343-26.343 26.343c-3.124 3.124-3.124 8.189 0 11.314z" fill="#000000"></path>
</svg>
