<?xml version="1.0" encoding="utf-8"?>
<!-- Generated by IcoMoon.io -->
<!DOCTYPE svg PUBLIC "-//W3C//DTD SVG 1.1//EN" "http://www.w3.org/Graphics/SVG/1.1/DTD/svg11.dtd">
<svg version="1.1" xmlns="http://www.w3.org/2000/svg" xmlns:xlink="http://www.w3.org/1999/xlink" width="128" height="128" viewBox="0 0 128 128">
<g id="icomoon-ignore">
	<line stroke-width="1" x1="" y1="" x2="" y2="" stroke="#449FDB" opacity=""></line>
</g>
	<path d="M8.719 40.643c-3.131 7.401-4.719 15.261-4.719 23.357s1.588 15.957 4.719 23.357c3.022 7.147 7.348 13.562 12.855 19.069s11.923 9.833 19.069 12.855c1.018 0.43 2.073 0.634 3.113 0.634 3.117 0 6.081-1.834 7.371-4.886 1.722-4.069-0.182-8.763-4.252-10.484-5.239-2.216-9.945-5.389-13.989-9.433s-7.216-8.749-9.432-13.989c-2.293-5.419-3.456-11.18-3.456-17.124s1.163-11.705 3.455-17.124c2.216-5.239 5.389-9.945 9.431-13.987 0 0 0 0 0.001-0.001l23.113 23.113v-56h-56l21.573 21.573c0 0 0 0 0 0-5.508 5.508-9.832 11.924-12.854 19.069z" fill="#000000"></path>
	<path d="M106.427 106.34c5.507-5.508 9.833-11.924 12.854-19.069 3.131-7.402 4.719-15.26 4.719-23.357s-1.588-15.956-4.719-23.357c-3.022-7.147-7.347-13.562-12.855-19.069s-11.924-9.833-19.069-12.855c-4.067-1.722-8.763 0.181-10.484 4.252s0.182 8.763 4.251 10.485c5.239 2.216 9.945 5.389 13.989 9.433s7.216 8.749 9.432 13.989c2.293 5.419 3.455 11.181 3.455 17.124s-1.163 11.705-3.455 17.124c-2.215 5.238-5.389 9.945-9.431 13.987-0.015 0.015-0.030 0.028-0.045 0.043l-23.067-23.069v56h56l-21.618-21.618c0.015-0.014 0.030-0.028 0.044-0.043z" fill="#000000"></path>
</svg>
