<?xml version="1.0" encoding="utf-8"?>
<!-- Generated by IcoMoon.io -->
<!DOCTYPE svg PUBLIC "-//W3C//DTD SVG 1.1//EN" "http://www.w3.org/Graphics/SVG/1.1/DTD/svg11.dtd">
<svg version="1.1" xmlns="http://www.w3.org/2000/svg" xmlns:xlink="http://www.w3.org/1999/xlink" width="128" height="128" viewBox="0 0 128 128">
<g id="icomoon-ignore">
	<line stroke-width="1" x1="" y1="" x2="" y2="" stroke="#449FDB" opacity=""></line>
</g>
	<path d="M106.426 21.573c-5.507-5.508-11.924-9.833-19.069-12.855-7.402-3.131-15.261-4.718-23.357-4.718s-15.956 1.587-23.356 4.718c-7.146 3.022-13.562 7.348-19.070 12.855-5.507 5.507-9.832 11.923-12.854 19.069-3.131 7.402-4.719 15.261-4.719 23.358s1.588 15.957 4.719 23.357c3.022 7.147 7.348 13.562 12.855 19.069s11.923 9.833 19.069 12.855c7.402 3.131 15.261 4.718 23.357 4.718s15.956-1.588 23.356-4.718c7.146-3.022 13.562-7.347 19.069-12.855 3.125-3.124 3.125-8.189 0.001-11.314s-8.189-3.124-11.314 0c-4.044 4.043-8.751 7.218-13.99 9.433-5.417 2.291-11.178 3.454-17.123 3.454s-11.706-1.163-17.124-3.454c-5.239-2.216-9.945-5.389-13.989-9.433s-7.216-8.749-9.432-13.989c-2.293-5.419-3.455-11.18-3.455-17.124s1.163-11.705 3.455-17.124c2.216-5.239 5.389-9.945 9.431-13.987 4.044-4.044 8.751-7.218 13.99-9.433 5.418-2.293 11.18-3.455 17.123-3.455s11.706 1.163 17.125 3.454c5.239 2.216 9.945 5.389 13.989 9.433l-23.113 23.113h56v-56l-21.574 21.573c0 0 0 0 0 0z" fill="#000000"></path>
</svg>
