<?xml version="1.0" encoding="utf-8"?>
<!-- Generated by IcoMoon.io -->
<!DOCTYPE svg PUBLIC "-//W3C//DTD SVG 1.1//EN" "http://www.w3.org/Graphics/SVG/1.1/DTD/svg11.dtd">
<svg version="1.1" xmlns="http://www.w3.org/2000/svg" xmlns:xlink="http://www.w3.org/1999/xlink" width="128" height="128" viewBox="0 0 128 128">
<g id="icomoon-ignore">
	<line stroke-width="1" x1="" y1="" x2="" y2="" stroke="#449FDB" opacity=""></line>
</g>
	<path d="M107.583 19.919c-7.665-0.528-26.925-0.743-43.61-0.743-16.718 0-35.986 0.215-43.636 0.743-7.652 0.445-11.422 1.59-14.922 7.86-3.575 6.263-5.415 17.039-5.415 36.021 0 0.014 0 0.028 0 0.028 0 0.014 0 0.028 0 0.028v0.014c0 18.899 1.84 29.758 5.415 35.951 3.499 6.263 7.269 7.401 14.922 7.929 7.651 0.445 26.918 0.716 43.636 0.716 16.684 0 35.945-0.271 43.61-0.716 7.666-0.528 11.429-1.666 14.9-7.929 3.618-6.193 5.436-17.052 5.436-35.951 0 0 0-0.028 0-0.042 0 0 0-0.013 0-0.028 0-18.982-1.82-29.758-5.436-36.020-3.47-6.27-7.234-7.416-14.9-7.861zM51.24 87.198v-46.874l36.291 23.503-36.291 23.371z" fill="#000000"></path>
</svg>
