<?xml version="1.0" encoding="utf-8"?>
<!-- Generated by IcoMoon.io -->
<!DOCTYPE svg PUBLIC "-//W3C//DTD SVG 1.1//EN" "http://www.w3.org/Graphics/SVG/1.1/DTD/svg11.dtd">
<svg version="1.1" xmlns="http://www.w3.org/2000/svg" xmlns:xlink="http://www.w3.org/1999/xlink" width="128" height="128" viewBox="0 0 128 128">
<g id="icomoon-ignore">
	<line stroke-width="1" x1="" y1="" x2="" y2="" stroke="#449FDB" opacity=""></line>
</g>
	<path d="M24.043 58.233c-0.631 13.205 5.858 24.94 15.957 31.701v14.066h40v-14.066c9.647-6.458 16-17.453 16-29.934 0-20.264-16.742-36.617-37.148-35.982-18.625 0.579-33.919 15.603-34.809 34.215z" fill="#000000"></path>
	<path d="M40 112.16c0 8.749 7.091 15.84 15.84 15.84h8.32c8.749 0 15.84-7.091 15.84-15.84v-0.16h-40v0.16z" fill="#000000"></path>
	<path d="M64 4c0 2.209-1.791 4-4 4s-4-1.791-4-4c0-2.209 1.791-4 4-4s4 1.791 4 4z" fill="#000000"></path>
	<path d="M120 60c0 2.209-1.791 4-4 4s-4-1.791-4-4c0-2.209 1.791-4 4-4s4 1.791 4 4z" fill="#000000"></path>
	<path d="M8 60c0 2.209-1.791 4-4 4s-4-1.791-4-4c0-2.209 1.791-4 4-4s4 1.791 4 4z" fill="#000000"></path>
	<path d="M103.598 20.402c0 2.209-1.791 4-4 4s-4-1.791-4-4c0-2.209 1.791-4 4-4s4 1.791 4 4z" fill="#000000"></path>
	<path d="M24.402 99.598c0 2.209-1.791 4-4 4s-4-1.791-4-4c0-2.209 1.791-4 4-4s4 1.791 4 4z" fill="#000000"></path>
	<path d="M24.402 20.402c0 2.209-1.791 4-4 4s-4-1.791-4-4c0-2.209 1.791-4 4-4s4 1.791 4 4z" fill="#000000"></path>
	<path d="M103.598 99.598c0 2.209-1.791 4-4 4s-4-1.791-4-4c0-2.209 1.791-4 4-4s4 1.791 4 4z" fill="#000000"></path>
</svg>
