<?xml version="1.0" encoding="utf-8"?>
<!-- Generated by IcoMoon.io -->
<!DOCTYPE svg PUBLIC "-//W3C//DTD SVG 1.1//EN" "http://www.w3.org/Graphics/SVG/1.1/DTD/svg11.dtd">
<svg version="1.1" xmlns="http://www.w3.org/2000/svg" xmlns:xlink="http://www.w3.org/1999/xlink" width="128" height="128" viewBox="0 0 128 128">
<g id="icomoon-ignore">
	<line stroke-width="1" x1="" y1="" x2="" y2="" stroke="#449FDB" opacity=""></line>
</g>
	<path d="M111.962-0.189h-96.027c-8.779 0-15.975 7.113-15.975 15.99v95.936c0 8.905 7.197 16.052 15.975 16.052h96.028c8.807 0 16.038-7.147 16.038-16.052v-95.937c-0.001-8.877-7.232-15.989-16.039-15.989zM47.99 63.768c0 0 1.285-15.947 15.969-15.947 14.753 0 15.975 15.947 15.975 15.947s0.521 16.017-15.975 16.017c-16.476 0-15.969-16.017-15.969-16.017zM111.962 103.79c0 4.46-3.521 7.946-8.009 7.946h-79.974c-4.473 0-8.043-3.486-8.043-7.946v-40.022c0-4.376 3.571-8.002 8.043-8.002h9.113c-0.681 2.556-1.111 5.252-1.111 8.002 0 17.712 14.309 32.007 31.979 32.007 17.676 0 31.958-14.295 31.958-32.007 0-2.75-0.383-5.445-1.084-8.002h9.12c4.487 0 8.009 3.626 8.009 8.002v40.022zM111.962 31.762c0 4.404-3.521 7.987-8.009 7.987h-8.035c-4.341 0-7.939-3.584-7.939-7.988v-8.043c0-4.362 3.598-7.917 7.939-7.917h8.035c4.487 0 8.009 3.556 8.009 7.917v8.044z" fill="#000000"></path>
</svg>
