<?xml version="1.0" encoding="utf-8"?>
<!-- Generated by IcoMoon.io -->
<!DOCTYPE svg PUBLIC "-//W3C//DTD SVG 1.1//EN" "http://www.w3.org/Graphics/SVG/1.1/DTD/svg11.dtd">
<svg version="1.1" xmlns="http://www.w3.org/2000/svg" xmlns:xlink="http://www.w3.org/1999/xlink" width="128" height="128" viewBox="0 0 128 128">
<g id="icomoon-ignore">
	<line stroke-width="1" x1="" y1="" x2="" y2="" stroke="#449FDB" opacity=""></line>
</g>
	<path d="M51.669 66.141c0 0 12.114-0.973 12.114-15.782 0-14.781-9.954-22.034-22.439-22.034h-41.359v82.786h41.358c0 0 25.215 0.834 25.215-24.423 0 0 1.025-20.547-14.889-20.547zM18.17 43.036h23.173c0 0 5.588 0 5.588 8.655 0 8.572-3.296 9.836-7.054 9.836h-21.707v-18.491zM40.099 96.356h-21.929v-22.103h23.173c0 0 8.325-0.125 8.325 11.364-0.001 9.697-6.28 10.669-9.57 10.74z" fill="#000000"></path>
	<path d="M100.146 49.427c-30.477 0-30.469 31.745-30.469 31.745s-2.099 31.648 30.469 31.648c0 0 27.219 1.625 27.219-22.006h-14.011c0 0 0.497 8.919-12.733 8.919 0 0-13.99 0.959-13.99-14.406h41.147c0 0.013 4.553-35.9-27.633-35.9zM112.584 74.267h-26.091c0 0 1.716-12.739 14.021-12.739 12.236 0 12.069 12.739 12.069 12.739z" fill="#000000"></path>
	<path d="M83.048 33.214h32.807v10.212h-32.807v-10.212z" fill="#000000"></path>
</svg>
