<?xml version="1.0" encoding="utf-8"?>
<!-- Generated by IcoMoon.io -->
<!DOCTYPE svg PUBLIC "-//W3C//DTD SVG 1.1//EN" "http://www.w3.org/Graphics/SVG/1.1/DTD/svg11.dtd">
<svg version="1.1" xmlns="http://www.w3.org/2000/svg" xmlns:xlink="http://www.w3.org/1999/xlink" width="128" height="128" viewBox="0 0 128 128">
<g id="icomoon-ignore">
	<line stroke-width="1" x1="" y1="" x2="" y2="" stroke="#449FDB" opacity=""></line>
</g>
	<path d="M124.43 17.771c-5.069 3.021-10.674 5.16-16.638 6.355-4.827-5.125-11.687-8.306-19.18-8.306-14.528 0-26.228 11.791-26.228 26.249 0 2.084 0.173 4.084 0.605 5.986-21.819-1.062-41.123-11.52-54.089-27.451-2.257 3.931-3.59 8.424-3.59 13.264 0 9.090 4.681 17.145 11.66 21.812-4.215-0.084-8.353-1.305-11.853-3.236 0 0.084 0 0.181 0 0.285 0 12.757 9.097 23.347 21.027 25.784-2.138 0.597-4.472 0.875-6.888 0.875-1.681 0-3.375-0.097-4.965-0.451 3.403 10.395 13.049 18.034 24.521 18.284-8.931 6.986-20.263 11.194-32.541 11.194-2.152 0-4.215-0.098-6.277-0.361 11.625 7.493 25.402 11.777 40.262 11.777 48.29 0 74.692-40.005 74.692-74.678 0-1.16-0.041-2.277-0.098-3.389 5.209-3.701 9.583-8.319 13.153-13.632-4.764 2.091-9.834 3.472-15.117 4.146 5.436-3.249 9.589-8.353 11.547-14.506z" fill="#000000"></path>
</svg>
