<?xml version="1.0" encoding="utf-8"?>
<!-- Generated by IcoMoon.io -->
<!DOCTYPE svg PUBLIC "-//W3C//DTD SVG 1.1//EN" "http://www.w3.org/Graphics/SVG/1.1/DTD/svg11.dtd">
<svg version="1.1" xmlns="http://www.w3.org/2000/svg" xmlns:xlink="http://www.w3.org/1999/xlink" width="128" height="128" viewBox="0 0 128 128">
<g id="icomoon-ignore">
	<line stroke-width="1" x1="" y1="" x2="" y2="" stroke="#449FDB" opacity=""></line>
</g>
	<path d="M104 72v16h-16c-7.439 0-14.098-3.403-18.504-8.733-1.807 5.37-4.536 10.317-8.003 14.653 7.062 6.264 16.345 10.079 26.507 10.079h16v16l24-24-24-24z" fill="#000000"></path>
	<path d="M104 8v16h-16c-22.056 0-40 17.944-40 40 0 13.234-10.766 24-24 24h-24v16h24c22.056 0 40-17.944 40-40 0-13.234 10.766-24 24-24h16v16l24-24-24-24z" fill="#000000"></path>
	<path d="M42.504 48.733c1.807-5.37 4.536-10.316 8.003-14.653-7.062-6.264-16.345-10.079-26.507-10.079h-24v16h24c7.439 0 14.098 3.403 18.504 8.733z" fill="#000000"></path>
</svg>
